<svg xmlns="http://www.w3.org/2000/svg" xmlns:xlink="http://www.w3.org/1999/xlink" zoomAndPan="magnify" viewBox="0 0 375 374.999991" height="500" preserveAspectRatio="xMidYMid meet" version="1.0"><defs><clipPath id="4341733e93"><path d="M 6.605469 6.605469 L 368.105469 6.605469 L 368.105469 368.105469 L 6.605469 368.105469 Z M 6.605469 6.605469 " clip-rule="nonzero"/></clipPath></defs><rect x="-37.5" width="450" fill="#ffffff" y="-37.499999" height="449.999989" fill-opacity="1"/><rect x="-37.5" width="450" fill="#ffffff" y="-37.499999" height="449.999989" fill-opacity="1"/><path fill="#f97e2b" d="M 61.574219 130.351562 C 56.253906 150.273438 52.261719 170.558594 49.699219 191.027344 C 47.0625 189.613281 44.121094 187.882812 41.132812 185.933594 C 0 159.164062 18.578125 134.707031 61.574219 130.351562 Z M 61.574219 130.351562 " fill-opacity="1" fill-rule="nonzero"/><path fill="#4f2020" d="M 61.574219 130.351562 C 56.253906 150.273438 52.261719 170.558594 49.699219 191.027344 C 47.0625 189.613281 44.121094 187.882812 41.132812 185.933594 C 31.109375 179.269531 20.003906 170.113281 18.226562 158.597656 C 32.28125 171.164062 47.558594 141.007812 54.65625 131.464844 C 57.0625 131.015625 59.398438 130.652344 61.574219 130.351562 Z M 61.574219 130.351562 " fill-opacity="0.212" fill-rule="nonzero"/><path fill="#4f2020" d="M 183.164062 322.222656 C 180.574219 322.222656 177.695312 321.851562 174.503906 321.101562 C 167.9375 319.5625 160.96875 316.695312 154.8125 314.167969 C 152.746094 313.320312 150.785156 312.511719 148.949219 311.796875 C 148.066406 311.457031 147.460938 310.625 147.410156 309.679688 C 147.195312 306.027344 148.644531 302.351562 151.378906 299.605469 C 154.195312 296.785156 157.96875 295.285156 161.769531 295.492188 C 163.097656 295.5625 164.125 296.699219 164.054688 298.042969 C 163.980469 299.375 162.832031 300.402344 161.503906 300.328125 C 159.09375 300.195312 156.652344 301.175781 154.8125 303.027344 C 153.433594 304.417969 152.5625 306.136719 152.308594 307.914062 C 153.699219 308.472656 155.152344 309.0625 156.664062 309.679688 C 168.324219 314.472656 182.835938 320.433594 190.300781 315.582031 C 193.78125 313.320312 195.65625 308.542969 195.851562 301.394531 C 195.886719 300.089844 196.964844 299.046875 198.269531 299.046875 C 198.292969 299.046875 198.320312 299.046875 198.34375 299.046875 C 199.671875 299.085938 200.726562 300.195312 200.6875 301.539062 C 200.554688 306.003906 199.832031 309.800781 198.523438 312.800781 C 197.230469 315.765625 195.355469 318.074219 192.925781 319.648438 C 190.289062 321.378906 187.058594 322.222656 183.164062 322.222656 Z M 183.164062 322.222656 " fill-opacity="1" fill-rule="nonzero"/><path fill="#ffffff" d="M 61.574219 130.351562 C 60.933594 132.746094 60.316406 135.128906 59.710938 137.535156 C 43.324219 139.929688 24.566406 144.5625 18.929688 161.765625 C 12.226562 140.125 43.46875 132.769531 61.574219 130.351562 Z M 61.574219 130.351562 " fill-opacity="0.6" fill-rule="nonzero"/><path fill="#4f2020" d="M 49.734375 193.445312 C 49.347656 193.445312 48.972656 193.347656 48.621094 193.167969 C 37.226562 187.242188 28.628906 180.695312 23.027344 173.714844 C 17.476562 166.785156 15.214844 159.648438 16.472656 153.082031 C 17.71875 146.574219 22.386719 140.863281 29.972656 136.570312 C 37.734375 132.164062 48.292969 129.261719 61.367188 127.945312 C 62.15625 127.859375 62.941406 128.171875 63.449219 128.777344 C 63.96875 129.382812 64.152344 130.207031 63.945312 130.96875 C 58.660156 150.722656 54.679688 171.03125 52.128906 191.316406 C 52.03125 192.101562 51.546875 192.792969 50.847656 193.15625 C 50.507812 193.347656 50.121094 193.445312 49.734375 193.445312 Z M 58.371094 133.15625 C 47.582031 134.535156 38.835938 137.101562 32.355469 140.777344 C 26.039062 144.359375 22.195312 148.929688 21.226562 154 C 20.246094 159.140625 22.167969 164.910156 26.800781 170.703125 C 31.398438 176.449219 38.617188 182.125 47.785156 187.242188 C 50.21875 169.058594 53.773438 150.902344 58.371094 133.15625 Z M 58.371094 133.15625 " fill-opacity="1" fill-rule="nonzero"/><path fill="#4f2020" d="M 351.972656 207.417969 C 331.808594 273.453125 265.09375 309.511719 201.523438 325.734375 C 196.636719 326.132812 191.726562 325.527344 187.070312 323.929688 C 146.480469 310.199219 105.5625 293.59375 77.066406 261.667969 C 77.066406 261.667969 77.066406 261.65625 77.054688 261.65625 C 59.734375 242.894531 46.601562 219.972656 42.257812 194.703125 C 41.75 191.800781 41.375 188.863281 41.109375 185.933594 C 39.464844 167.703125 42.246094 148.917969 50.167969 132.359375 C 77.757812 74.429688 163.304688 65.234375 198.597656 125.667969 C 198.597656 125.65625 198.609375 125.644531 198.609375 125.644531 C 225.980469 77.828125 290.007812 71.769531 328.410156 107.003906 C 355.550781 131.828125 362.25 173.113281 351.972656 207.417969 Z M 351.972656 207.417969 " fill-opacity="1" fill-rule="nonzero"/><path fill="#4f2020" d="M 195.730469 328.152344 C 195.523438 328.152344 195.320312 328.128906 195.113281 328.066406 C 170.886719 321.679688 149.070312 313.550781 130.273438 303.921875 C 119.628906 298.46875 109.722656 292.40625 100.847656 285.921875 C 91.316406 278.957031 82.691406 271.3125 75.21875 263.167969 C 58.671875 246.003906 46.636719 223.964844 41.339844 201.101562 C 38.570312 189.1875 37.675781 177.308594 38.65625 165.804688 C 39.695312 153.625 42.851562 142.023438 48.027344 131.332031 C 51.65625 123.347656 56.421875 116.113281 62.203125 109.8125 C 67.683594 103.835938 74.082031 98.695312 81.203125 94.535156 C 94.726562 86.632812 110.484375 82.460938 126.789062 82.460938 C 138.0625 82.460938 149.382812 84.542969 159.542969 88.472656 C 170.246094 92.621094 179.535156 98.660156 187.132812 106.414062 C 201.027344 120.589844 208.285156 139.664062 208.140625 161.632812 C 215.347656 166.917969 220.1875 174.429688 222.167969 183.417969 C 223.921875 191.367188 223.453125 200.21875 220.789062 209.121094 C 235.570312 218.074219 250.542969 227.945312 265.3125 238.457031 C 279.8125 248.773438 294.59375 260.0625 309.226562 271.976562 C 309.773438 272.421875 310.097656 273.089844 310.125 273.789062 C 310.136719 274.492188 309.84375 275.167969 309.324219 275.652344 C 296.925781 286.816406 277.589844 299.023438 256.253906 309.136719 C 233.585938 319.878906 212.167969 326.628906 195.949219 328.128906 C 195.886719 328.140625 195.804688 328.152344 195.730469 328.152344 Z M 126.789062 87.300781 C 93.808594 87.300781 65.3125 104.949219 52.429688 133.351562 C 52.417969 133.375 52.417969 133.386719 52.40625 133.410156 C 33.585938 172.253906 44.414062 224.242188 78.726562 259.832031 C 78.738281 259.84375 78.75 259.855469 78.761719 259.878906 C 104.835938 288.269531 144.253906 309.597656 195.925781 323.289062 C 229.195312 320.046875 279.246094 295.066406 303.941406 273.949219 C 274.816406 250.382812 245.464844 229.652344 216.65625 212.304688 C 215.6875 211.722656 215.25 210.539062 215.601562 209.472656 C 220.429688 194.933594 220.003906 175.578125 204.328125 164.886719 C 203.652344 164.425781 203.253906 163.652344 203.277344 162.84375 C 203.6875 141.660156 196.914062 123.324219 183.671875 109.824219 C 169.652344 95.5 148.921875 87.300781 126.789062 87.300781 Z M 126.789062 87.300781 " fill-opacity="1" fill-rule="nonzero"/><path fill="#ffffff" d="M 307.667969 273.863281 C 282.957031 296.109375 229.777344 322.5625 195.730469 325.734375 C 151.945312 314.214844 107.632812 294.839844 77.082031 261.65625 C 77.066406 261.65625 77.066406 261.644531 77.066406 261.644531 L 77.066406 261.632812 C 72.664062 254.921875 71.042969 245.726562 70.5 237.125 C 53.894531 229.179688 44.484375 212.375 42.269531 194.679688 C 42.125 193.882812 41.96875 192.878906 41.859375 192.078125 C 38.910156 171.9375 41.386719 150.78125 50.179688 132.347656 C 85.414062 57.105469 207.4375 73.871094 205.671875 162.878906 C 221.191406 173.460938 223.695312 192.71875 217.875 210.222656 C 249.324219 229.15625 279.183594 250.675781 307.667969 273.863281 Z M 307.667969 273.863281 " fill-opacity="1" fill-rule="nonzero"/><path fill="#8c8c8c" d="M 157.246094 140.898438 C 149.226562 149.101562 136.71875 152.332031 125.460938 150.757812 C 120.234375 141.042969 103.871094 117.117188 115.675781 108.757812 C 126.984375 102.058594 141.0625 100.449219 152.890625 102.058594 C 165.566406 111.382812 169 129.261719 157.246094 140.898438 Z M 157.246094 140.898438 " fill-opacity="1" fill-rule="nonzero"/><path fill="#f97e2b" d="M 278.410156 251.023438 C 269.398438 272.640625 241.292969 295.527344 218.433594 279.597656 C 208.101562 271.734375 208.695312 259.539062 214.417969 249.113281 C 218.929688 238.046875 210.738281 232.359375 200.167969 232.082031 C 207.4375 225.9375 213.726562 218.726562 218.820312 210.757812 C 239.296875 223.15625 259.105469 236.628906 278.410156 251.023438 Z M 278.410156 251.023438 " fill-opacity="1" fill-rule="nonzero"/><path fill="#f97e2b" d="M 198.222656 301.480469 C 197.339844 332.3125 167.597656 316.453125 149.78125 309.546875 C 149.417969 303.148438 155.261719 297.558594 161.585938 297.921875 C 166.339844 298.128906 170.378906 301.226562 174.757812 303.074219 C 182.246094 306.257812 191.144531 305.554688 198.222656 301.480469 Z M 198.222656 301.480469 " fill-opacity="1" fill-rule="nonzero"/><path fill="#4f2020" d="M 225.144531 204.417969 C 225.144531 204.417969 225.097656 204.5625 225.011719 204.816406 C 224.914062 205.082031 224.78125 205.46875 224.601562 205.953125 C 224.550781 206.074219 224.503906 206.207031 224.457031 206.339844 C 224.429688 206.414062 224.40625 206.472656 224.382812 206.546875 C 224.371094 206.582031 224.359375 206.617188 224.347656 206.65625 C 224.335938 206.691406 224.308594 206.726562 224.296875 206.765625 C 224.164062 207.066406 224.03125 207.394531 223.875 207.742188 C 223.71875 208.09375 223.558594 208.46875 223.378906 208.855469 C 223.199219 209.242188 223.003906 209.632812 222.796875 210.054688 C 222.691406 210.261719 222.59375 210.476562 222.484375 210.683594 C 222.375 210.902344 222.265625 211.117188 222.144531 211.335938 C 221.902344 211.773438 221.648438 212.21875 221.394531 212.679688 C 221.261719 212.910156 221.128906 213.140625 220.996094 213.382812 C 220.851562 213.609375 220.707031 213.839844 220.5625 214.082031 C 220.414062 214.3125 220.257812 214.554688 220.113281 214.796875 C 219.957031 215.039062 219.8125 215.28125 219.652344 215.523438 C 219 216.476562 218.335938 217.46875 217.574219 218.414062 C 216.859375 219.394531 216.039062 220.324219 215.25 221.269531 C 214.839844 221.726562 214.417969 222.175781 214.003906 222.621094 C 213.59375 223.082031 213.160156 223.503906 212.734375 223.929688 C 211.890625 224.800781 211.007812 225.585938 210.148438 226.359375 C 209.710938 226.734375 209.277344 227.097656 208.851562 227.449219 C 208.636719 227.628906 208.429688 227.800781 208.222656 227.96875 C 208.019531 228.136719 207.800781 228.296875 207.582031 228.453125 C 207.160156 228.769531 206.761719 229.082031 206.363281 229.371094 C 206.167969 229.515625 205.960938 229.652344 205.769531 229.796875 C 205.574219 229.929688 205.382812 230.0625 205.1875 230.195312 C 204.800781 230.449219 204.449219 230.703125 204.101562 230.921875 C 203.75 231.136719 203.410156 231.34375 203.085938 231.539062 C 202.769531 231.730469 202.46875 231.914062 202.1875 232.070312 C 201.910156 232.226562 201.644531 232.359375 201.414062 232.492188 C 200.941406 232.746094 200.566406 232.929688 200.328125 233.0625 C 200.074219 233.195312 199.9375 233.253906 199.9375 233.253906 C 199.480469 233.484375 198.910156 233.304688 198.679688 232.84375 C 198.488281 232.46875 198.574219 232.023438 198.863281 231.742188 L 198.886719 231.71875 C 198.886719 231.71875 198.996094 231.609375 199.1875 231.429688 C 199.394531 231.234375 199.683594 230.957031 200.058594 230.605469 C 200.242188 230.425781 200.460938 230.242188 200.675781 230.027344 C 200.894531 229.808594 201.136719 229.578125 201.390625 229.324219 C 201.644531 229.070312 201.921875 228.816406 202.199219 228.539062 C 202.480469 228.257812 202.769531 227.957031 203.082031 227.644531 C 203.386719 227.328125 203.714844 227.027344 204.039062 226.675781 C 204.355469 226.324219 204.691406 225.984375 205.03125 225.621094 C 205.199219 225.441406 205.371094 225.257812 205.550781 225.078125 C 205.71875 224.882812 205.890625 224.691406 206.058594 224.496094 C 206.398438 224.109375 206.761719 223.722656 207.113281 223.3125 C 207.460938 222.902344 207.8125 222.476562 208.175781 222.066406 C 208.539062 221.65625 208.878906 221.207031 209.242188 220.773438 C 209.589844 220.335938 209.953125 219.902344 210.292969 219.441406 C 210.644531 218.992188 210.980469 218.535156 211.332031 218.085938 C 211.996094 217.15625 212.675781 216.246094 213.292969 215.316406 C 213.449219 215.085938 213.605469 214.855469 213.765625 214.625 C 213.921875 214.398438 214.078125 214.167969 214.222656 213.9375 C 214.527344 213.476562 214.816406 213.019531 215.105469 212.582031 C 215.398438 212.136719 215.652344 211.675781 215.929688 211.25 C 216.0625 211.035156 216.195312 210.816406 216.328125 210.609375 C 216.460938 210.394531 216.570312 210.175781 216.703125 209.96875 C 216.945312 209.546875 217.1875 209.136719 217.417969 208.746094 C 217.644531 208.347656 217.851562 207.960938 218.058594 207.585938 C 218.261719 207.210938 218.457031 206.859375 218.648438 206.523438 C 218.832031 206.183594 218.988281 205.867188 219.144531 205.566406 C 219.304688 205.265625 219.449219 204.984375 219.59375 204.730469 C 219.605469 204.695312 219.628906 204.671875 219.640625 204.636719 C 219.652344 204.597656 219.679688 204.5625 219.691406 204.539062 C 219.726562 204.464844 219.75 204.40625 219.785156 204.34375 C 219.847656 204.210938 219.90625 204.089844 219.96875 203.980469 C 220.199219 203.523438 220.390625 203.160156 220.511719 202.90625 C 220.644531 202.664062 220.707031 202.53125 220.707031 202.53125 C 221.335938 201.34375 222.796875 200.898438 223.984375 201.515625 C 225.046875 202.046875 225.53125 203.304688 225.144531 204.417969 Z M 225.144531 204.417969 " fill-opacity="1" fill-rule="nonzero"/><path fill="#ffa86e" d="M 155.238281 135.152344 C 146.746094 129.324219 137.882812 124.023438 128.714844 119.332031 C 126.378906 117.660156 123.210938 118.59375 122.652344 121.570312 C 123.546875 141.40625 139.9375 148.289062 155.238281 135.152344 Z M 155.238281 135.152344 " fill-opacity="1" fill-rule="nonzero"/><path fill="#4f2020" d="M 299.769531 267.5 C 274.359375 247.289062 247.882812 228.417969 220.148438 211.589844 C 219.59375 210.429688 219.023438 209.28125 218.480469 208.117188 C 223.679688 191.003906 220.464844 173.039062 205.683594 162.867188 C 205.695312 155.789062 204.875 148.605469 203.265625 141.550781 C 203.519531 157.605469 205.828125 173.644531 209.953125 189.152344 C 201.679688 170.996094 201.246094 151.230469 200.449219 131.667969 C 196.976562 119.390625 186.246094 108.769531 177.964844 101.730469 C 184.433594 109.992188 189.886719 119.113281 194.207031 128.851562 C 179.171875 164.089844 223.378906 194.246094 192.308594 230.898438 C 186.585938 238.394531 175.835938 243.914062 167.257812 247.855469 C 139.984375 260.363281 73.839844 278 75.542969 233.097656 C 58.371094 227.304688 47.738281 206.230469 41.859375 192.066406 C 41.96875 192.867188 42.136719 193.871094 42.269531 194.667969 C 46.046875 219.914062 60.097656 242.847656 77.066406 261.621094 L 77.066406 261.632812 C 77.066406 261.644531 77.066406 261.644531 77.082031 261.644531 C 107.621094 294.828125 151.960938 314.214844 195.730469 325.71875 C 229.65625 322.597656 282.980469 296.109375 307.667969 273.863281 C 305.042969 271.722656 302.40625 269.605469 299.769531 267.5 Z M 260.632812 288.800781 C 246.890625 297.597656 227.273438 307.332031 211.007812 301.238281 C 198.453125 293.714844 203.472656 275.277344 195.175781 264.777344 C 196.671875 281.507812 190.664062 304.175781 169.546875 300.5 C 160.003906 298.285156 148.898438 295.082031 140.410156 289.214844 C 134.132812 284.871094 135.546875 275.167969 142.804688 272.835938 C 158.355469 267.875 172.714844 259.128906 184.167969 247.492188 C 182.246094 248.011719 180.359375 248.570312 178.445312 249.148438 C 194.570312 241.578125 208.527344 229.324219 218.433594 214.445312 C 229.488281 236.363281 235.777344 263.617188 259.578125 275.328125 C 264.902344 278.023438 265.503906 285.378906 260.632812 288.800781 Z M 260.632812 288.800781 " fill-opacity="0.2" fill-rule="nonzero"/><path fill="#ffffff" d="M 357.246094 181.3125 C 354.765625 209.691406 341.96875 236.835938 323.039062 257.980469 C 317.464844 264.695312 308.585938 266.617188 299.5625 267.34375 C 274.335938 269.4375 246.878906 256.867188 238.183594 232.179688 C 233.539062 226.105469 227.792969 220.410156 223.523438 213.621094 C 206.121094 187.628906 194.144531 153.84375 200.519531 122.765625 C 220.355469 94.230469 251.378906 78.652344 284.496094 85.339844 L 284.507812 85.339844 C 329.183594 91.570312 360.898438 136.859375 357.246094 181.3125 Z M 357.246094 181.3125 " fill-opacity="1" fill-rule="nonzero"/><path fill="#4f2020" d="M 357.246094 181.3125 C 351.933594 226.347656 324.308594 284.957031 270.984375 263.679688 C 256.191406 258.707031 242.875 246.246094 237.941406 231.476562 C 214.125 207.429688 187.300781 151.375 203.253906 119.015625 C 197.074219 147.539062 217.863281 169.675781 240.058594 142.53125 C 249.722656 129.660156 254.476562 112.703125 267.402344 103.121094 C 274.042969 98.296875 283.972656 94.535156 285.074219 85.339844 C 292.429688 89.320312 290.699219 103 286.792969 108.820312 C 273.425781 129.988281 270.222656 141.007812 262.265625 169.710938 C 256.992188 188.753906 236.394531 193.832031 227.082031 179.488281 C 205.695312 182.703125 225.507812 224.824219 254.957031 201.574219 C 231.167969 240.984375 322.617188 277.902344 324.589844 229.09375 C 354.65625 225.003906 361.417969 150.527344 342.972656 124.664062 C 353.3125 140.753906 358.707031 161.464844 357.246094 181.3125 Z M 357.246094 181.3125 " fill-opacity="0.2" fill-rule="nonzero"/><path fill="#b55040" d="M 289.390625 94.617188 C 285.65625 106.945312 272.035156 103.910156 264.222656 131.332031 C 261.515625 140.851562 258.839844 150.359375 255.480469 159.671875 C 243.769531 192.066406 206.46875 178.761719 201.210938 161.921875 C 198.777344 150.09375 198.078125 138.09375 199.527344 126.492188 C 218.214844 90.410156 256.578125 79.617188 284.480469 85.339844 C 287.503906 87.636719 289.816406 90.796875 289.390625 94.617188 Z M 289.390625 94.617188 " fill-opacity="1" fill-rule="nonzero"/><path fill="#4f2020" d="M 195.730469 328.140625 C 195.523438 328.140625 195.320312 328.117188 195.113281 328.054688 C 170.886719 321.65625 149.070312 313.539062 130.285156 303.910156 C 119.640625 298.457031 109.734375 292.394531 100.859375 285.910156 C 91.328125 278.945312 82.703125 271.296875 75.230469 263.15625 C 58.683594 245.992188 46.648438 223.953125 41.351562 201.089844 C 38.582031 189.175781 37.6875 177.296875 38.667969 165.792969 C 39.707031 153.601562 42.863281 142 48.039062 131.292969 C 55.285156 116.089844 66.800781 103.4375 81.363281 94.714844 C 95.246094 86.40625 111.175781 82 127.417969 82 C 141.859375 82 155.988281 85.582031 168.289062 92.34375 C 174.769531 95.914062 180.769531 100.363281 186.113281 105.589844 C 190.785156 110.148438 194.980469 115.316406 198.632812 121 C 202.128906 115.472656 206.214844 110.417969 210.800781 105.929688 C 216.109375 100.726562 222.109375 96.261719 228.640625 92.671875 C 241.21875 85.726562 255.648438 82.0625 270.355469 82.0625 C 291.773438 82.0625 312.398438 89.742188 328.386719 103.679688 C 342.164062 115.582031 351.8125 132.152344 356.277344 151.605469 C 358.355469 160.652344 359.253906 170.085938 358.949219 179.632812 C 358.648438 189.078125 357.171875 198.382812 354.570312 207.285156 C 354.570312 207.296875 354.570312 207.308594 354.558594 207.308594 C 349.5625 223.675781 341.425781 239.144531 330.359375 253.300781 C 320.101562 266.421875 307.351562 278.410156 292.464844 288.910156 C 278.519531 298.746094 262.90625 307.164062 246.042969 313.914062 C 229.933594 320.375 213.148438 325.140625 196.140625 328.101562 C 196.007812 328.128906 195.875 328.140625 195.730469 328.140625 Z M 127.417969 86.839844 C 95.320312 86.839844 65.878906 105.117188 52.40625 133.386719 C 52.40625 133.386719 52.40625 133.398438 52.394531 133.398438 C 33.585938 172.242188 44.414062 224.230469 78.726562 259.820312 C 78.738281 259.832031 78.75 259.84375 78.761719 259.867188 C 104.8125 288.234375 144.207031 309.558594 195.828125 323.253906 C 253.605469 313.066406 328.410156 276.292969 349.914062 205.917969 C 360.691406 169.011719 350.761719 129.394531 325.207031 107.332031 C 310.074219 94.144531 290.601562 86.902344 270.34375 86.902344 C 241.039062 86.902344 215.023438 101.839844 200.738281 126.867188 C 200.3125 127.617188 199.515625 128.089844 198.644531 128.089844 C 198.644531 128.089844 198.632812 128.089844 198.632812 128.089844 C 197.773438 128.089844 196.976562 127.628906 196.539062 126.890625 C 181.699219 101.429688 156.507812 86.839844 127.417969 86.839844 Z M 127.417969 86.839844 " fill-opacity="1" fill-rule="nonzero"/><path fill="#f97e2b" d="M 157.28125 140.898438 C 149.261719 149.101562 136.757812 152.332031 125.496094 150.757812 C 120.488281 141.832031 103.847656 116.308594 115.710938 108.757812 C 127.082031 102.070312 140.796875 100.449219 152.914062 102.058594 C 165.675781 111.601562 169.050781 129.070312 157.28125 140.898438 Z M 157.28125 140.898438 " fill-opacity="1" fill-rule="nonzero"/><path fill="#ffffff" d="M 132.5 106.253906 C 132.824219 107.1875 130.601562 108.832031 127.527344 109.921875 C 124.792969 110.898438 122.304688 111.117188 121.554688 110.5 C 117.742188 112.945312 115.117188 116.148438 114.960938 120.492188 C 115.421875 125.332031 116.039062 130.15625 116.835938 134.949219 C 114.078125 127.144531 106.785156 114.832031 115.722656 108.757812 C 126.402344 102.421875 139.5625 100.65625 150.941406 101.816406 C 146.394531 102.917969 139.125 103.992188 132.304688 105.976562 C 132.402344 106.0625 132.460938 106.15625 132.5 106.253906 Z M 132.5 106.253906 " fill-opacity="0.6" fill-rule="nonzero"/><path fill="#4f2020" d="M 157.28125 140.898438 C 149.261719 149.101562 136.757812 152.332031 125.496094 150.757812 C 119.679688 141.324219 114.296875 131.523438 111.984375 120.660156 C 123.597656 138.925781 151.921875 139.871094 164.632812 122.320312 C 164.902344 129.082031 162.035156 135.988281 157.28125 140.898438 Z M 157.28125 140.898438 " fill-opacity="0.2" fill-rule="nonzero"/><path fill="#b55040" d="M 258.757812 186.960938 C 259.335938 153.359375 309.3125 153.359375 309.882812 186.960938 C 309.3125 220.578125 259.324219 220.566406 258.757812 186.960938 Z M 258.757812 186.960938 " fill-opacity="1" fill-rule="nonzero"/><path fill="#4f2020" d="M 125.714844 153.371094 L 124.867188 152.113281 L 124.007812 150.855469 L 122.289062 148.328125 C 121.722656 147.480469 121.152344 146.621094 120.597656 145.761719 C 120.042969 144.902344 119.484375 144.03125 118.941406 143.160156 C 118.394531 142.289062 117.863281 141.40625 117.34375 140.511719 C 116.8125 139.617188 116.304688 138.722656 115.808594 137.816406 C 115.300781 136.90625 114.816406 135.988281 114.34375 135.054688 C 113.871094 134.125 113.414062 133.179688 112.976562 132.226562 C 112.542969 131.269531 112.132812 130.300781 111.730469 129.3125 C 111.34375 128.320312 110.980469 127.328125 110.65625 126.296875 C 110.328125 125.269531 110.039062 124.230469 109.785156 123.164062 C 109.542969 122.101562 109.335938 121 109.226562 119.875 C 109.105469 118.75 109.070312 117.601562 109.144531 116.414062 C 109.15625 116.125 109.191406 115.824219 109.226562 115.519531 C 109.265625 115.21875 109.3125 114.929688 109.359375 114.625 C 109.480469 114.019531 109.617188 113.429688 109.820312 112.824219 C 109.871094 112.679688 109.917969 112.519531 109.976562 112.375 L 110.160156 111.929688 L 110.246094 111.710938 L 110.339844 111.492188 L 110.546875 111.058594 C 110.621094 110.910156 110.703125 110.777344 110.777344 110.632812 C 110.859375 110.5 110.933594 110.355469 111.019531 110.222656 C 111.199219 109.957031 111.367188 109.679688 111.5625 109.425781 C 112.335938 108.382812 113.292969 107.5 114.320312 106.789062 L 114.367188 106.75 C 114.40625 106.726562 114.441406 106.703125 114.476562 106.679688 L 115.601562 106.050781 L 116.738281 105.445312 C 117.125 105.25 117.5 105.070312 117.886719 104.875 C 118.273438 104.695312 118.664062 104.523438 119.050781 104.34375 C 119.4375 104.175781 119.835938 104.003906 120.222656 103.835938 C 120.621094 103.667969 121.007812 103.519531 121.40625 103.363281 C 121.808594 103.207031 122.207031 103.074219 122.605469 102.929688 C 123.003906 102.785156 123.414062 102.648438 123.816406 102.515625 C 124.625 102.25 125.433594 102.007812 126.257812 101.777344 C 127.082031 101.550781 127.902344 101.355469 128.726562 101.164062 C 129.546875 100.980469 130.382812 100.8125 131.203125 100.667969 C 132.039062 100.519531 132.875 100.386719 133.707031 100.28125 C 134.542969 100.171875 135.378906 100.074219 136.210938 100 C 136.636719 99.964844 137.046875 99.929688 137.46875 99.90625 C 137.894531 99.867188 138.304688 99.855469 138.726562 99.832031 C 139.152344 99.808594 139.5625 99.796875 139.984375 99.785156 C 140.410156 99.769531 140.820312 99.769531 141.242188 99.757812 C 141.667969 99.746094 142.078125 99.757812 142.5 99.769531 C 142.925781 99.769531 143.335938 99.796875 143.757812 99.808594 C 144.59375 99.832031 145.429688 99.890625 146.261719 99.953125 C 147.097656 100.011719 147.917969 100.109375 148.753906 100.207031 C 149.578125 100.316406 150.410156 100.425781 151.234375 100.558594 C 151.644531 100.628906 152.054688 100.703125 152.46875 100.773438 C 152.878906 100.847656 153.277344 100.945312 153.6875 101.03125 C 154.28125 101.148438 154.65625 101.730469 154.535156 102.324219 C 154.425781 102.867188 153.929688 103.230469 153.398438 103.195312 L 153.375 103.195312 L 152.175781 103.121094 C 151.777344 103.097656 151.378906 103.074219 150.980469 103.0625 L 149.78125 103.023438 C 149.382812 103.011719 148.984375 103 148.585938 103 C 147.785156 102.988281 146.988281 103 146.191406 103.011719 C 145.390625 103.023438 144.59375 103.0625 143.808594 103.097656 C 143.007812 103.132812 142.222656 103.195312 141.425781 103.265625 C 141.027344 103.304688 140.636719 103.339844 140.238281 103.375 C 139.839844 103.425781 139.453125 103.460938 139.054688 103.507812 C 138.269531 103.605469 137.480469 103.714844 136.707031 103.835938 C 136.320312 103.894531 135.921875 103.957031 135.535156 104.027344 C 135.148438 104.101562 134.761719 104.164062 134.375 104.246094 C 133.597656 104.390625 132.824219 104.5625 132.0625 104.742188 C 131.300781 104.925781 130.539062 105.117188 129.777344 105.324219 C 129.015625 105.527344 128.265625 105.757812 127.527344 106 C 126.777344 106.242188 126.039062 106.496094 125.3125 106.761719 C 124.953125 106.90625 124.589844 107.027344 124.226562 107.1875 C 123.863281 107.332031 123.5 107.476562 123.148438 107.621094 C 122.785156 107.777344 122.4375 107.925781 122.074219 108.082031 C 121.722656 108.25 121.371094 108.40625 121.019531 108.566406 C 120.671875 108.734375 120.320312 108.902344 119.980469 109.074219 L 118.953125 109.605469 L 117.9375 110.160156 L 116.933594 110.742188 L 117.089844 110.644531 C 116.449219 111.105469 115.917969 111.636719 115.46875 112.242188 C 115.347656 112.386719 115.261719 112.558594 115.15625 112.703125 C 115.105469 112.773438 115.058594 112.871094 115.023438 112.945312 C 114.972656 113.027344 114.925781 113.101562 114.886719 113.1875 L 114.769531 113.441406 L 114.707031 113.574219 L 114.660156 113.707031 L 114.550781 113.972656 C 114.515625 114.058594 114.488281 114.152344 114.453125 114.25 C 114.332031 114.625 114.246094 115.011719 114.164062 115.410156 C 114.125 115.617188 114.101562 115.824219 114.066406 116.027344 C 114.054688 116.234375 114.019531 116.453125 114.003906 116.65625 C 113.945312 117.503906 113.96875 118.398438 114.066406 119.308594 C 114.152344 120.214844 114.296875 121.132812 114.5 122.054688 C 114.695312 122.972656 114.9375 123.902344 115.203125 124.824219 C 115.46875 125.742188 115.785156 126.671875 116.109375 127.59375 C 116.4375 128.511719 116.789062 129.433594 117.164062 130.351562 C 117.539062 131.269531 117.925781 132.175781 118.324219 133.085938 C 118.734375 133.992188 119.144531 134.898438 119.570312 135.804688 C 119.992188 136.714844 120.441406 137.609375 120.886719 138.515625 C 121.335938 139.421875 121.792969 140.320312 122.253906 141.214844 C 123.171875 143.015625 124.117188 144.804688 125.058594 146.609375 C 125.53125 147.515625 126.003906 148.421875 126.464844 149.332031 C 126.691406 149.789062 126.921875 150.25 127.152344 150.710938 C 127.382812 151.167969 127.613281 151.652344 127.816406 152.113281 C 128.097656 152.71875 127.816406 153.429688 127.214844 153.710938 C 126.667969 154.035156 126.039062 153.855469 125.714844 153.371094 Z M 125.714844 153.371094 " fill-opacity="1" fill-rule="nonzero"/><path fill="#f08484" d="M 155.273438 135.164062 C 128.847656 157.085938 116.535156 119.535156 125.785156 118.472656 C 136.34375 122.015625 145.828125 129.214844 155.273438 135.164062 Z M 155.273438 135.164062 " fill-opacity="1" fill-rule="nonzero"/><path fill="#4f2020" d="M 139.539062 144.308594 C 134.289062 144.308594 129.511719 142.121094 126.089844 138.140625 C 122.59375 134.101562 120.597656 128.402344 120.296875 121.664062 C 120.28125 121.484375 120.296875 121.289062 120.332031 121.109375 C 120.886719 118.097656 123.28125 116.078125 126.28125 116.078125 C 127.601562 116.078125 128.882812 116.476562 130.007812 117.238281 C 139.1875 121.957031 148.148438 127.304688 156.652344 133.144531 C 157.269531 133.570312 157.65625 134.257812 157.691406 135.007812 C 157.726562 135.757812 157.425781 136.484375 156.859375 136.96875 C 151.269531 141.78125 145.28125 144.308594 139.539062 144.308594 Z M 125.132812 121.785156 C 125.714844 132.539062 131.351562 139.472656 139.539062 139.472656 C 143.300781 139.472656 147.265625 138.03125 151.171875 135.296875 C 143.613281 130.265625 135.726562 125.621094 127.660156 121.484375 C 127.550781 121.4375 127.457031 121.375 127.359375 121.304688 C 126.921875 121 126.535156 120.929688 126.28125 120.929688 C 125.871094 120.929688 125.351562 121.085938 125.132812 121.785156 Z M 125.132812 121.785156 " fill-opacity="1" fill-rule="nonzero"/><path fill="#4f2020" d="M 293.058594 269.992188 C 292.765625 269.992188 292.476562 269.945312 292.1875 269.824219 C 290.941406 269.339844 290.324219 267.9375 290.808594 266.691406 C 291.59375 264.667969 292.332031 262.757812 293.371094 259.613281 C 293.796875 258.34375 295.160156 257.664062 296.433594 258.089844 C 297.703125 258.511719 298.378906 259.878906 297.957031 261.148438 C 296.953125 264.175781 296.25 266 295.308594 268.433594 C 294.945312 269.410156 294.023438 269.992188 293.058594 269.992188 Z M 293.058594 269.992188 " fill-opacity="1" fill-rule="nonzero"/><path fill="#4f2020" d="M 110.160156 257.800781 C 109.421875 257.800781 108.671875 257.726562 107.945312 257.582031 C 105.359375 257.050781 103.109375 255.585938 101.621094 253.457031 C 100.859375 252.355469 101.125 250.855469 102.226562 250.09375 C 103.324219 249.332031 104.824219 249.597656 105.585938 250.699219 C 107.316406 253.191406 110.632812 253.421875 112.867188 252.367188 C 113.871094 251.894531 116.097656 250.46875 115.226562 247.3125 C 114.914062 246.175781 115.457031 244.976562 116.519531 244.480469 C 117.585938 243.972656 118.855469 244.3125 119.53125 245.277344 C 122.351562 249.28125 126.945312 249.777344 130.308594 248.90625 C 133.671875 248.039062 137.457031 245.363281 137.953125 240.488281 C 138.085938 239.160156 139.285156 238.191406 140.601562 238.335938 C 141.933594 238.46875 142.898438 239.667969 142.753906 240.984375 C 142.429688 244.128906 141.121094 246.984375 138.957031 249.269531 C 136.984375 251.351562 134.410156 252.851562 131.519531 253.601562 C 128.628906 254.351562 125.652344 254.304688 122.917969 253.445312 C 121.746094 253.082031 120.644531 252.574219 119.628906 251.945312 C 118.808594 253.988281 117.1875 255.695312 114.914062 256.757812 C 113.4375 257.4375 111.804688 257.800781 110.160156 257.800781 Z M 110.160156 257.800781 " fill-opacity="1" fill-rule="nonzero"/><path fill="#4f2020" d="M 184.519531 246.777344 C 183.371094 247.613281 182.160156 248.449219 180.949219 249.234375 C 179.742188 250.019531 178.507812 250.78125 177.273438 251.519531 C 174.792969 252.996094 172.253906 254.375 169.679688 255.671875 C 167.101562 256.976562 164.488281 258.199219 161.839844 259.347656 C 161.175781 259.636719 160.511719 259.914062 159.84375 260.195312 C 159.179688 260.472656 158.515625 260.75 157.847656 261.015625 C 156.507812 261.550781 155.164062 262.070312 153.808594 262.578125 C 151.101562 263.582031 148.378906 264.523438 145.621094 265.40625 C 142.863281 266.289062 140.09375 267.101562 137.300781 267.851562 C 134.507812 268.589844 131.675781 269.265625 128.832031 269.847656 C 125.992188 270.441406 123.125 270.921875 120.234375 271.324219 C 117.34375 271.722656 114.429688 271.988281 111.488281 272.144531 L 110.390625 272.195312 C 110.027344 272.207031 109.652344 272.21875 109.289062 272.230469 L 108.1875 272.253906 L 106.519531 272.253906 L 105.960938 272.242188 L 104.851562 272.21875 C 104.113281 272.183594 103.375 272.167969 102.625 272.109375 C 101.136719 272.023438 99.660156 271.867188 98.171875 271.660156 L 97.0625 271.503906 L 95.949219 271.3125 C 95.574219 271.25 95.210938 271.164062 94.835938 271.09375 C 94.460938 271.019531 94.097656 270.949219 93.722656 270.851562 C 92.246094 270.523438 90.785156 270.101562 89.332031 269.605469 L 88.789062 269.410156 L 88.523438 269.316406 L 88.253906 269.207031 L 87.179688 268.78125 L 86.113281 268.324219 C 85.933594 268.25 85.765625 268.164062 85.582031 268.082031 L 85.0625 267.828125 L 84.796875 267.695312 L 84.664062 267.632812 L 84.554688 267.585938 L 84.496094 267.546875 L 84.023438 267.292969 L 83.792969 267.171875 L 83.671875 267.113281 L 83.539062 267.039062 L 83.007812 266.738281 C 82.644531 266.53125 82.328125 266.328125 81.992188 266.121094 L 81.738281 265.964844 L 81.496094 265.808594 L 81.011719 265.480469 C 79.71875 264.597656 78.484375 263.605469 77.347656 262.503906 C 75.074219 260.304688 73.1875 257.679688 71.820312 254.871094 C 71.648438 254.519531 71.480469 254.171875 71.324219 253.808594 L 71.09375 253.273438 C 71.019531 253.09375 70.9375 252.910156 70.875 252.742188 C 70.585938 252.015625 70.332031 251.292969 70.101562 250.566406 C 69.628906 249.101562 69.265625 247.613281 68.976562 246.125 C 68.6875 244.636719 68.480469 243.148438 68.347656 241.664062 C 68.203125 240.175781 68.128906 238.6875 68.105469 237.210938 L 69.4375 239.28125 L 67.886719 238.46875 C 67.378906 238.191406 66.871094 237.902344 66.363281 237.609375 C 65.855469 237.320312 65.359375 237.003906 64.863281 236.703125 C 64.367188 236.386719 63.886719 236.0625 63.390625 235.746094 C 62.90625 235.421875 62.433594 235.082031 61.949219 234.742188 C 61.476562 234.40625 61.019531 234.042969 60.546875 233.691406 C 60.085938 233.328125 59.640625 232.953125 59.179688 232.589844 C 58.730469 232.214844 58.296875 231.828125 57.847656 231.441406 C 57.414062 231.054688 56.992188 230.640625 56.554688 230.242188 C 56.132812 229.832031 55.722656 229.421875 55.308594 229.007812 L 54.101562 227.726562 C 53.714844 227.292969 53.324219 226.84375 52.9375 226.410156 C 52.5625 225.949219 52.1875 225.5 51.828125 225.042969 C 51.476562 224.570312 51.101562 224.109375 50.761719 223.640625 L 50.253906 222.925781 C 50.085938 222.683594 49.914062 222.453125 49.746094 222.199219 L 49.019531 221.109375 C 48.9375 220.988281 48.863281 220.867188 48.789062 220.734375 C 48.160156 219.742188 47.570312 218.738281 47.011719 217.710938 C 46.734375 217.191406 46.457031 216.683594 46.191406 216.164062 C 45.925781 215.644531 45.65625 215.121094 45.429688 214.589844 C 45.1875 214.058594 44.933594 213.539062 44.714844 212.992188 L 44.375 212.195312 C 44.253906 211.929688 44.15625 211.652344 44.050781 211.386719 L 43.734375 210.574219 C 43.625 210.308594 43.527344 210.03125 43.433594 209.753906 L 43.128906 208.929688 C 43.035156 208.652344 42.949219 208.371094 42.851562 208.105469 L 42.574219 207.285156 C 42.488281 207.007812 42.40625 206.726562 42.320312 206.449219 L 42.066406 205.613281 C 41.980469 205.335938 41.910156 205.058594 41.835938 204.78125 L 41.605469 203.945312 C 41.535156 203.667969 41.460938 203.390625 41.402344 203.097656 L 41.195312 202.253906 C 41.121094 201.972656 41.074219 201.683594 41 201.40625 C 40.878906 200.835938 40.746094 200.28125 40.652344 199.710938 C 40.542969 199.144531 40.421875 198.574219 40.335938 198.007812 C 40.238281 197.4375 40.144531 196.871094 40.058594 196.300781 L 39.9375 195.441406 L 39.875 195.019531 C 39.890625 195.066406 39.863281 194.910156 39.890625 195.117188 L 39.890625 195.101562 L 39.875 195.03125 L 39.863281 194.945312 L 39.851562 194.875 C 39.839844 194.777344 39.839844 194.703125 39.828125 194.644531 L 39.816406 194.402344 L 39.816406 194.390625 C 39.753906 193.058594 40.796875 191.921875 42.136719 191.875 C 43.46875 191.8125 44.605469 192.851562 44.652344 194.195312 L 44.652344 194.207031 L 44.667969 194.390625 C 44.667969 194.390625 44.667969 194.390625 44.667969 194.367188 L 44.652344 194.304688 L 44.652344 194.28125 C 44.652344 194.269531 44.652344 194.28125 44.652344 194.28125 L 44.679688 194.414062 L 44.738281 194.8125 L 44.859375 195.609375 C 44.933594 196.144531 45.027344 196.675781 45.113281 197.207031 C 45.199219 197.742188 45.308594 198.273438 45.402344 198.804688 C 45.5 199.335938 45.621094 199.855469 45.730469 200.390625 C 45.789062 200.65625 45.839844 200.921875 45.910156 201.175781 L 46.105469 201.960938 C 46.164062 202.226562 46.226562 202.480469 46.300781 202.75 L 46.515625 203.523438 C 46.589844 203.777344 46.648438 204.042969 46.734375 204.296875 L 46.964844 205.070312 C 47.046875 205.324219 47.121094 205.589844 47.195312 205.84375 L 47.449219 206.605469 C 47.53125 206.859375 47.617188 207.113281 47.703125 207.367188 L 47.980469 208.117188 C 48.078125 208.371094 48.160156 208.628906 48.257812 208.867188 L 48.546875 209.617188 C 48.644531 209.871094 48.742188 210.113281 48.851562 210.367188 L 49.164062 211.105469 C 49.371094 211.601562 49.601562 212.085938 49.820312 212.570312 C 50.035156 213.054688 50.277344 213.527344 50.519531 214.011719 C 50.75 214.492188 51.015625 214.953125 51.269531 215.425781 C 51.777344 216.355469 52.320312 217.277344 52.890625 218.171875 C 52.964844 218.28125 53.023438 218.402344 53.109375 218.511719 L 53.324219 218.835938 L 53.773438 219.5 C 53.917969 219.71875 54.074219 219.9375 54.234375 220.15625 L 54.691406 220.808594 C 55.007812 221.242188 55.332031 221.65625 55.660156 222.078125 C 55.988281 222.488281 56.335938 222.902344 56.664062 223.3125 C 57.015625 223.710938 57.367188 224.109375 57.714844 224.507812 L 58.804688 225.671875 L 59.929688 226.796875 C 60.316406 227.160156 60.703125 227.523438 61.101562 227.871094 C 61.503906 228.222656 61.902344 228.574219 62.3125 228.914062 C 62.722656 229.238281 63.136719 229.589844 63.558594 229.917969 C 63.980469 230.230469 64.40625 230.558594 64.828125 230.871094 C 65.261719 231.175781 65.699219 231.488281 66.132812 231.792969 C 66.582031 232.082031 67.015625 232.382812 67.476562 232.664062 C 67.9375 232.941406 68.382812 233.21875 68.84375 233.496094 L 70.234375 234.285156 L 71.648438 235.035156 C 72.449219 235.457031 72.933594 236.253906 72.96875 237.101562 C 73.125 239.835938 73.441406 242.546875 74.019531 245.144531 C 74.308594 246.453125 74.660156 247.722656 75.097656 248.96875 C 75.3125 249.585938 75.542969 250.191406 75.796875 250.796875 C 75.859375 250.941406 75.917969 251.097656 75.992188 251.242188 L 76.199219 251.679688 C 76.332031 251.96875 76.488281 252.257812 76.621094 252.550781 C 77.792969 254.835938 79.328125 256.878906 81.179688 258.609375 L 81.351562 258.765625 L 81.53125 258.925781 L 81.882812 259.238281 C 82.125 259.445312 82.367188 259.636719 82.621094 259.84375 C 82.875 260.035156 83.128906 260.230469 83.382812 260.425781 C 83.648438 260.605469 83.902344 260.800781 84.167969 260.96875 L 84.566406 261.234375 L 84.773438 261.367188 L 84.976562 261.488281 C 85.257812 261.65625 85.535156 261.828125 85.800781 261.972656 L 86.199219 262.203125 L 86.296875 262.261719 L 86.417969 262.324219 L 86.660156 262.445312 L 87.132812 262.6875 L 87.53125 262.878906 L 87.964844 263.085938 C 88.109375 263.15625 88.253906 263.21875 88.414062 263.289062 L 89.308594 263.664062 L 90.226562 264.015625 L 90.457031 264.101562 L 90.6875 264.171875 L 91.160156 264.332031 C 92.40625 264.742188 93.6875 265.105469 94.992188 265.382812 C 97.59375 265.964844 100.289062 266.300781 103 266.472656 C 103.675781 266.519531 104.367188 266.53125 105.042969 266.570312 L 106.070312 266.59375 L 106.578125 266.605469 L 107.097656 266.605469 C 108.464844 266.617188 109.84375 266.570312 111.222656 266.507812 C 113.980469 266.363281 116.738281 266.121094 119.484375 265.746094 C 122.242188 265.382812 124.988281 264.921875 127.722656 264.378906 C 130.453125 263.824219 133.1875 263.21875 135.898438 262.515625 C 138.605469 261.828125 141.304688 261.054688 143.988281 260.242188 C 146.671875 259.417969 149.335938 258.535156 151.984375 257.605469 L 153.96875 256.902344 L 155.949219 256.179688 C 157.269531 255.683594 158.585938 255.199219 159.894531 254.679688 C 160.546875 254.425781 161.199219 254.171875 161.863281 253.914062 L 163.824219 253.128906 C 164.476562 252.863281 165.128906 252.609375 165.785156 252.332031 L 166.761719 251.933594 L 167.730469 251.519531 C 170.332031 250.433594 172.90625 249.308594 175.472656 248.144531 C 176.753906 247.566406 178.035156 246.972656 179.304688 246.367188 C 180.585938 245.761719 181.832031 245.15625 183.128906 244.527344 C 183.804688 244.203125 184.613281 244.480469 184.941406 245.15625 C 185.242188 245.691406 185.050781 246.390625 184.519531 246.777344 Z M 184.519531 246.777344 " fill-opacity="1" fill-rule="nonzero"/><path fill="#4f2020" d="M 195.464844 262.832031 L 195.695312 263.871094 L 195.9375 264.910156 L 196.433594 267.003906 C 196.769531 268.394531 197.097656 269.796875 197.421875 271.203125 C 197.75 272.605469 198.066406 274.019531 198.355469 275.4375 C 198.644531 276.851562 198.933594 278.277344 199.203125 279.707031 C 199.335938 280.417969 199.457031 281.132812 199.589844 281.859375 C 199.710938 282.574219 199.820312 283.296875 199.9375 284.011719 C 200.167969 285.453125 200.351562 286.902344 200.519531 288.355469 C 200.6875 289.804688 200.820312 291.269531 200.917969 292.746094 C 201.027344 294.222656 201.078125 295.695312 201.089844 297.183594 C 201.101562 298.671875 201.0625 300.171875 200.96875 301.671875 C 200.871094 303.171875 200.703125 304.695312 200.433594 306.207031 C 200.167969 307.722656 199.820312 309.246094 199.308594 310.769531 C 198.800781 312.28125 198.171875 313.792969 197.289062 315.222656 C 196.417969 316.648438 195.308594 318.015625 193.953125 319.140625 C 192.609375 320.277344 191.011719 321.136719 189.367188 321.691406 C 187.722656 322.25 186.03125 322.515625 184.386719 322.574219 C 182.742188 322.636719 181.132812 322.515625 179.570312 322.285156 C 179.5 322.273438 179.425781 322.261719 179.355469 322.238281 L 179.328125 322.238281 L 176.316406 321.460938 L 173.320312 320.652344 C 172.328125 320.375 171.324219 320.09375 170.332031 319.804688 C 169.339844 319.503906 168.347656 319.210938 167.355469 318.910156 C 166.363281 318.59375 165.371094 318.292969 164.394531 317.980469 C 163.414062 317.652344 162.421875 317.335938 161.441406 317 C 160.460938 316.660156 159.480469 316.320312 158.503906 315.984375 L 155.574219 314.917969 C 154.609375 314.554688 153.628906 314.179688 152.660156 313.804688 L 149.769531 312.644531 L 146.890625 311.433594 L 144.035156 310.175781 C 143.09375 309.742188 142.148438 309.292969 141.207031 308.859375 C 140.261719 308.410156 139.332031 307.9375 138.402344 307.492188 C 137.929688 307.261719 137.46875 307.019531 137.011719 306.777344 L 135.617188 306.0625 C 135.160156 305.832031 134.699219 305.578125 134.242188 305.324219 L 132.863281 304.574219 C 131.035156 303.558594 129.234375 302.507812 127.457031 301.40625 C 125.675781 300.304688 123.910156 299.167969 122.195312 297.972656 L 121.539062 297.523438 C 121.324219 297.378906 121.117188 297.222656 120.898438 297.0625 L 119.617188 296.144531 C 118.757812 295.539062 117.9375 294.886719 117.101562 294.246094 L 116.472656 293.761719 C 116.265625 293.605469 116.0625 293.433594 115.855469 293.265625 L 114.632812 292.261719 L 114.03125 291.765625 C 113.824219 291.597656 113.628906 291.414062 113.4375 291.246094 L 112.25 290.207031 L 111.660156 289.683594 C 111.464844 289.515625 111.273438 289.324219 111.078125 289.140625 L 109.929688 288.050781 L 109.347656 287.507812 C 109.15625 287.328125 108.972656 287.132812 108.792969 286.953125 L 107.679688 285.828125 L 107.125 285.257812 L 106.589844 284.675781 L 105.515625 283.503906 C 105.332031 283.308594 105.152344 283.117188 104.984375 282.910156 L 104.460938 282.304688 L 103.433594 281.097656 C 103.085938 280.699219 102.769531 280.273438 102.441406 279.851562 L 101.464844 278.59375 L 101.222656 278.277344 C 101.136719 278.167969 101.0625 278.058594 100.992188 277.953125 L 100.53125 277.296875 L 99.613281 275.992188 C 99.457031 275.773438 99.308594 275.554688 99.164062 275.328125 L 98.730469 274.660156 L 97.871094 273.320312 C 97.328125 272.410156 96.808594 271.480469 96.273438 270.5625 C 95.609375 269.398438 95.996094 267.921875 97.15625 267.257812 C 98.292969 266.605469 99.734375 266.96875 100.421875 268.070312 L 100.496094 268.191406 C 101.015625 269.023438 101.523438 269.871094 102.042969 270.707031 L 102.878906 271.925781 L 103.289062 272.542969 C 103.421875 272.75 103.566406 272.957031 103.714844 273.148438 L 104.597656 274.335938 L 105.03125 274.925781 C 105.105469 275.023438 105.175781 275.121094 105.25 275.21875 L 105.480469 275.507812 L 106.410156 276.65625 C 106.722656 277.042969 107.027344 277.429688 107.355469 277.792969 L 108.332031 278.90625 L 108.816406 279.464844 C 108.988281 279.644531 109.15625 279.828125 109.324219 280.007812 L 110.351562 281.085938 L 110.859375 281.617188 L 111.394531 282.136719 L 112.457031 283.175781 C 112.640625 283.347656 112.808594 283.527344 112.988281 283.699219 L 113.535156 284.207031 L 114.632812 285.210938 C 114.816406 285.378906 114.996094 285.546875 115.191406 285.707031 L 115.757812 286.1875 L 116.894531 287.15625 C 117.089844 287.3125 117.269531 287.484375 117.464844 287.640625 L 118.046875 288.113281 L 119.207031 289.042969 C 119.398438 289.203125 119.59375 289.359375 119.785156 289.503906 L 120.378906 289.953125 L 121.578125 290.847656 C 121.78125 290.992188 121.976562 291.148438 122.183594 291.292969 L 122.785156 291.730469 L 124.007812 292.601562 C 124.214844 292.746094 124.40625 292.890625 124.625 293.035156 L 125.253906 293.460938 C 126.910156 294.585938 128.59375 295.660156 130.308594 296.699219 C 132.027344 297.742188 133.769531 298.746094 135.523438 299.699219 L 136.851562 300.414062 C 137.300781 300.65625 137.734375 300.898438 138.183594 301.128906 L 139.527344 301.816406 C 139.972656 302.046875 140.421875 302.289062 140.867188 302.496094 C 141.773438 302.929688 142.671875 303.390625 143.578125 303.8125 C 144.496094 304.238281 145.402344 304.671875 146.324219 305.082031 L 149.09375 306.304688 L 151.886719 307.480469 L 154.691406 308.605469 L 157.523438 309.691406 L 160.363281 310.746094 C 161.320312 311.082031 162.277344 311.410156 163.21875 311.75 C 164.175781 312.074219 165.128906 312.390625 166.097656 312.71875 C 167.054688 313.03125 168.019531 313.332031 168.988281 313.636719 C 169.957031 313.9375 170.925781 314.230469 171.890625 314.519531 C 172.859375 314.808594 173.839844 315.085938 174.804688 315.367188 L 177.734375 316.175781 L 180.671875 316.949219 L 180.429688 316.902344 C 181.710938 317.109375 182.980469 317.214844 184.203125 317.179688 C 185.425781 317.144531 186.609375 316.960938 187.6875 316.613281 C 187.820312 316.5625 187.964844 316.527344 188.085938 316.480469 L 188.472656 316.320312 C 188.738281 316.226562 188.96875 316.078125 189.222656 315.957031 C 189.355469 315.898438 189.464844 315.824219 189.585938 315.753906 L 189.9375 315.535156 C 190.046875 315.449219 190.15625 315.367188 190.277344 315.292969 L 190.445312 315.171875 L 190.53125 315.113281 L 190.613281 315.039062 C 191.472656 314.335938 192.222656 313.453125 192.863281 312.449219 C 193.503906 311.445312 194.011719 310.296875 194.4375 309.085938 C 194.859375 307.878906 195.175781 306.597656 195.414062 305.289062 C 195.65625 303.984375 195.828125 302.628906 195.949219 301.273438 C 196.070312 299.90625 196.128906 298.527344 196.152344 297.148438 C 196.191406 295.757812 196.164062 294.367188 196.128906 292.964844 C 196.09375 291.558594 196.007812 290.15625 195.925781 288.753906 C 195.839844 287.351562 195.71875 285.933594 195.585938 284.519531 C 195.523438 283.820312 195.453125 283.105469 195.378906 282.402344 C 195.308594 281.703125 195.234375 280.988281 195.148438 280.285156 C 194.992188 278.871094 194.824219 277.457031 194.652344 276.039062 L 194.121094 271.769531 C 193.941406 270.34375 193.757812 268.914062 193.589844 267.476562 C 193.503906 266.761719 193.433594 266.035156 193.359375 265.3125 C 193.324219 264.949219 193.289062 264.585938 193.261719 264.222656 C 193.25 264.039062 193.226562 263.847656 193.214844 263.664062 L 193.179688 263.121094 C 193.140625 262.480469 193.625 261.9375 194.265625 261.898438 C 194.847656 261.886719 195.34375 262.285156 195.464844 262.832031 Z M 195.464844 262.832031 " fill-opacity="1" fill-rule="nonzero"/><path fill="#ffffff" d="M 357.246094 181.3125 C 356.542969 196.375 350.410156 213.648438 344.011719 226.988281 C 372.75 157.53125 325.957031 93.070312 270.136719 91.109375 C 270.160156 91.183594 270.175781 91.265625 270.1875 91.328125 C 270.414062 93.699219 266.0625 96.046875 260.472656 96.589844 C 254.875 97.132812 250.15625 95.660156 249.914062 93.300781 C 249.914062 93.25 249.914062 93.203125 249.914062 93.167969 C 232.621094 97.328125 215.203125 107.886719 199.550781 126.433594 C 215.105469 95.078125 251.632812 78.734375 284.480469 85.339844 L 284.496094 85.339844 C 329.183594 91.570312 360.898438 136.859375 357.246094 181.3125 Z M 357.246094 181.3125 " fill-opacity="0.6" fill-rule="nonzero"/><path fill="#4f2020" d="M 170.550781 255.003906 C 170.550781 255.003906 170.234375 255.488281 169.691406 256.324219 C 169.558594 256.527344 169.398438 256.769531 169.242188 257.011719 C 169.085938 257.253906 168.929688 257.53125 168.746094 257.8125 C 168.566406 258.101562 168.382812 258.402344 168.179688 258.71875 C 167.984375 259.046875 167.777344 259.394531 167.574219 259.757812 C 167.367188 260.121094 167.136719 260.496094 166.921875 260.882812 C 166.703125 261.28125 166.472656 261.695312 166.242188 262.105469 C 166.121094 262.3125 166.011719 262.527344 165.890625 262.746094 C 165.785156 262.964844 165.664062 263.183594 165.542969 263.410156 C 165.3125 263.859375 165.070312 264.320312 164.828125 264.777344 C 164.367188 265.722656 163.882812 266.691406 163.4375 267.695312 C 162.964844 268.6875 162.542969 269.726562 162.09375 270.753906 C 161.683594 271.792969 161.246094 272.835938 160.875 273.875 C 160.472656 274.902344 160.136719 275.945312 159.785156 276.9375 C 159.617188 277.429688 159.46875 277.925781 159.3125 278.410156 C 159.242188 278.652344 159.15625 278.894531 159.082031 279.125 C 159.011719 279.367188 158.949219 279.597656 158.878906 279.828125 C 158.746094 280.285156 158.613281 280.746094 158.476562 281.179688 C 158.355469 281.617188 158.25 282.039062 158.140625 282.453125 C 158.03125 282.863281 157.933594 283.25 157.835938 283.625 C 157.753906 284 157.667969 284.351562 157.582031 284.6875 C 157.5 285.027344 157.425781 285.332031 157.367188 285.621094 C 157.292969 285.910156 157.246094 286.175781 157.195312 286.417969 C 156.992188 287.386719 156.871094 287.929688 156.871094 287.929688 L 156.859375 287.96875 C 156.6875 288.753906 155.914062 289.261719 155.117188 289.09375 C 154.355469 288.933594 153.859375 288.199219 153.980469 287.421875 C 153.980469 287.421875 154.074219 286.855469 154.234375 285.839844 C 154.269531 285.585938 154.316406 285.304688 154.367188 285.003906 C 154.425781 284.703125 154.488281 284.375 154.546875 284.023438 C 154.609375 283.671875 154.679688 283.296875 154.753906 282.910156 C 154.835938 282.523438 154.921875 282.113281 155.007812 281.691406 C 155.105469 281.265625 155.1875 280.820312 155.296875 280.359375 C 155.40625 279.898438 155.515625 279.425781 155.636719 278.945312 C 155.695312 278.703125 155.746094 278.449219 155.816406 278.207031 C 155.878906 277.953125 155.949219 277.710938 156.011719 277.457031 C 156.144531 276.949219 156.277344 276.425781 156.421875 275.894531 C 156.722656 274.84375 157.027344 273.753906 157.378906 272.664062 C 157.714844 271.566406 158.101562 270.464844 158.476562 269.363281 C 158.890625 268.261719 159.277344 267.160156 159.710938 266.097656 C 160.125 265.019531 160.582031 263.980469 161.007812 262.976562 C 161.222656 262.46875 161.453125 261.984375 161.671875 261.5 C 161.78125 261.257812 161.890625 261.015625 161.996094 260.785156 C 162.105469 260.558594 162.214844 260.328125 162.324219 260.097656 C 162.542969 259.648438 162.761719 259.203125 162.964844 258.777344 C 163.171875 258.355469 163.390625 257.945312 163.59375 257.558594 C 163.800781 257.171875 163.980469 256.796875 164.175781 256.433594 C 164.367188 256.082031 164.550781 255.742188 164.730469 255.417969 C 164.902344 255.101562 165.070312 254.800781 165.214844 254.519531 C 165.359375 254.253906 165.503906 254.011719 165.625 253.796875 C 166.132812 252.925781 166.414062 252.429688 166.414062 252.429688 C 167.078125 251.265625 168.566406 250.878906 169.714844 251.546875 C 170.875 252.210938 171.261719 253.699219 170.597656 254.847656 C 170.585938 254.933594 170.5625 254.980469 170.550781 255.003906 Z M 170.550781 255.003906 " fill-opacity="1" fill-rule="nonzero"/><path fill="#4f2020" d="M 109.542969 239.316406 C 106.664062 242.4375 113.765625 245.933594 116.050781 246.804688 C 119.605469 248 121.636719 241.324219 122.640625 238.820312 C 122.582031 233.882812 112.082031 237.03125 109.542969 239.316406 Z M 109.542969 239.316406 " fill-opacity="1" fill-rule="nonzero"/><path fill="#4f2020" d="M 294.253906 270.148438 C 281.796875 270.148438 269.265625 266.714844 258.960938 260.484375 C 247.871094 253.769531 239.925781 244.273438 235.945312 233 L 235.414062 232.382812 C 230.660156 226.953125 225.75 221.328125 221.578125 215.015625 C 212.324219 201.441406 205.210938 186.320312 201.027344 171.296875 C 196.417969 154.761719 195.257812 138.578125 197.59375 123.203125 C 197.652344 122.839844 197.785156 122.488281 198.003906 122.1875 C 207.039062 109.21875 217.660156 99.128906 229.582031 92.1875 C 241.835938 85.050781 255.128906 81.433594 269.109375 81.433594 C 274.308594 81.433594 279.644531 81.941406 284.964844 82.957031 C 295.71875 84.953125 306.070312 89.152344 315.722656 95.40625 C 325.035156 101.441406 333.273438 109.097656 340.191406 118.171875 C 347.132812 127.277344 352.359375 137.292969 355.734375 147.953125 C 359.253906 159.054688 360.570312 170.34375 359.664062 181.484375 C 359.277344 188.59375 357.449219 197.703125 354.535156 207.113281 C 351.402344 217.214844 347.195312 227.171875 342.367188 235.90625 C 336.828125 245.945312 330.734375 253.953125 324.273438 259.722656 C 316.679688 266.496094 308.769531 269.933594 300.785156 269.933594 C 300.472656 269.933594 300.15625 269.933594 299.84375 269.917969 C 297.992188 270.078125 296.117188 270.148438 294.253906 270.148438 Z M 202.296875 124.484375 C 198.210938 152.597656 206.675781 184.566406 225.59375 212.304688 C 225.605469 212.316406 225.605469 212.328125 225.617188 212.328125 C 229.609375 218.363281 234.410156 223.867188 239.066406 229.191406 L 239.914062 230.160156 C 240.117188 230.402344 240.277344 230.667969 240.382812 230.96875 C 247.277344 251.183594 269.4375 265.296875 294.265625 265.296875 C 296.042969 265.296875 297.835938 265.226562 299.578125 265.070312 C 299.671875 265.058594 299.78125 265.058594 299.878906 265.058594 C 300.179688 265.070312 300.484375 265.070312 300.785156 265.070312 C 318.140625 265.070312 331.640625 245.316406 338.148438 233.546875 C 347.207031 217.15625 354.0625 195.609375 354.851562 181.15625 C 354.851562 181.132812 354.851562 181.109375 354.851562 181.082031 C 358.355469 138.25 325.957031 95.476562 284.082031 87.675781 C 279.050781 86.71875 274.019531 86.234375 269.121094 86.234375 C 243.359375 86.273438 219.652344 99.832031 202.296875 124.484375 Z M 202.296875 124.484375 " fill-opacity="1" fill-rule="nonzero"/><path fill="#4f2020" d="M 236.101562 233.75 C 236.101562 233.75 236.042969 233.59375 235.945312 233.292969 C 235.898438 233.148438 235.835938 232.953125 235.765625 232.734375 C 235.738281 232.6875 235.726562 232.625 235.703125 232.566406 C 235.679688 232.503906 235.667969 232.457031 235.644531 232.371094 C 235.605469 232.226562 235.570312 232.070312 235.523438 231.902344 C 235.484375 231.730469 235.4375 231.550781 235.390625 231.367188 C 235.363281 231.273438 235.339844 231.175781 235.316406 231.078125 C 235.292969 230.980469 235.269531 230.882812 235.257812 230.789062 C 235.183594 230.402344 235.109375 229.976562 235.039062 229.515625 C 234.976562 229.058594 234.929688 228.574219 234.882812 228.066406 C 234.855469 227.8125 234.855469 227.546875 234.832031 227.28125 C 234.820312 227.011719 234.808594 226.734375 234.796875 226.445312 C 234.796875 226.167969 234.808594 225.875 234.808594 225.585938 C 234.808594 225.441406 234.820312 225.296875 234.820312 225.136719 C 234.820312 225.066406 234.820312 224.992188 234.832031 224.910156 C 234.832031 224.835938 234.84375 224.761719 234.84375 224.679688 C 234.894531 224.074219 234.929688 223.445312 235.039062 222.816406 C 235.085938 222.5 235.125 222.175781 235.183594 221.847656 C 235.257812 221.523438 235.316406 221.195312 235.390625 220.867188 C 235.449219 220.542969 235.535156 220.203125 235.632812 219.875 C 235.679688 219.707031 235.714844 219.550781 235.765625 219.378906 C 235.8125 219.210938 235.847656 219.042969 235.910156 218.886719 C 236.019531 218.558594 236.128906 218.21875 236.234375 217.878906 L 236.320312 217.625 L 236.417969 217.371094 C 236.476562 217.203125 236.550781 217.046875 236.609375 216.875 C 236.671875 216.707031 236.742188 216.539062 236.804688 216.378906 C 236.863281 216.210938 236.949219 216.054688 237.023438 215.886719 C 237.167969 215.558594 237.324219 215.21875 237.480469 214.894531 C 237.820312 214.25 238.148438 213.585938 238.535156 212.957031 C 238.898438 212.316406 239.332031 211.710938 239.742188 211.09375 C 240.191406 210.503906 240.625 209.910156 241.109375 209.351562 C 241.570312 208.785156 242.089844 208.253906 242.585938 207.730469 C 243.117188 207.234375 243.613281 206.714844 244.171875 206.269531 C 244.304688 206.160156 244.4375 206.039062 244.582031 205.929688 L 244.785156 205.761719 L 244.992188 205.601562 C 245.269531 205.386719 245.546875 205.179688 245.828125 204.972656 C 245.960938 204.863281 246.105469 204.78125 246.25 204.683594 C 246.394531 204.585938 246.527344 204.488281 246.671875 204.40625 C 246.820312 204.308594 246.953125 204.222656 247.097656 204.128906 C 247.242188 204.03125 247.386719 203.957031 247.53125 203.875 C 247.824219 203.703125 248.101562 203.546875 248.378906 203.378906 C 248.667969 203.230469 248.949219 203.085938 249.238281 202.941406 C 249.382812 202.867188 249.515625 202.808594 249.660156 202.734375 C 249.792969 202.664062 249.9375 202.613281 250.085938 202.554688 C 250.363281 202.433594 250.640625 202.3125 250.917969 202.203125 C 251.050781 202.144531 251.195312 202.09375 251.332031 202.046875 C 251.464844 202 251.609375 201.949219 251.742188 201.902344 C 252.007812 201.804688 252.273438 201.707031 252.527344 201.636719 C 252.792969 201.5625 253.046875 201.488281 253.300781 201.417969 C 253.421875 201.382812 253.554688 201.34375 253.675781 201.320312 C 253.738281 201.308594 253.796875 201.285156 253.859375 201.273438 C 253.917969 201.261719 253.980469 201.25 254.039062 201.234375 C 254.28125 201.1875 254.523438 201.140625 254.753906 201.089844 C 254.863281 201.066406 254.984375 201.042969 255.089844 201.019531 C 255.152344 201.007812 255.199219 200.996094 255.261719 200.980469 C 255.320312 200.96875 255.371094 200.96875 255.429688 200.957031 C 255.867188 200.898438 256.277344 200.847656 256.652344 200.800781 C 257.027344 200.777344 257.378906 200.765625 257.691406 200.738281 C 257.847656 200.726562 257.996094 200.726562 258.140625 200.714844 C 258.285156 200.714844 258.40625 200.714844 258.527344 200.714844 C 258.769531 200.726562 258.972656 200.726562 259.144531 200.726562 C 259.480469 200.738281 259.652344 200.753906 259.652344 200.753906 C 260.195312 200.777344 260.617188 201.222656 260.59375 201.769531 C 260.582031 202.214844 260.257812 202.589844 259.84375 202.6875 L 259.773438 202.710938 C 259.773438 202.710938 259.613281 202.75 259.3125 202.820312 C 259.167969 202.855469 258.984375 202.894531 258.769531 202.941406 C 258.660156 202.964844 258.550781 202.988281 258.429688 203.027344 C 258.308594 203.0625 258.175781 203.097656 258.042969 203.136719 C 257.777344 203.21875 257.472656 203.292969 257.160156 203.390625 C 256.84375 203.511719 256.507812 203.617188 256.144531 203.753906 C 256.046875 203.777344 255.960938 203.8125 255.867188 203.859375 C 255.769531 203.898438 255.683594 203.933594 255.585938 203.980469 C 255.394531 204.054688 255.199219 204.140625 255.007812 204.222656 C 254.957031 204.25 254.910156 204.261719 254.863281 204.285156 C 254.8125 204.308594 254.765625 204.332031 254.714844 204.355469 C 254.621094 204.40625 254.523438 204.453125 254.414062 204.503906 C 254.207031 204.597656 254.003906 204.695312 253.796875 204.804688 C 253.59375 204.914062 253.386719 205.035156 253.167969 205.144531 C 253.058594 205.203125 252.949219 205.265625 252.84375 205.324219 C 252.734375 205.386719 252.625 205.445312 252.515625 205.507812 C 252.296875 205.640625 252.078125 205.773438 251.863281 205.90625 C 251.753906 205.976562 251.644531 206.039062 251.535156 206.109375 C 251.425781 206.183594 251.316406 206.269531 251.210938 206.339844 C 250.992188 206.5 250.761719 206.644531 250.542969 206.800781 C 250.328125 206.96875 250.109375 207.140625 249.890625 207.308594 C 249.78125 207.394531 249.671875 207.476562 249.5625 207.5625 C 249.457031 207.660156 249.347656 207.742188 249.238281 207.839844 C 249.128906 207.9375 249.019531 208.023438 248.910156 208.117188 C 248.800781 208.214844 248.695312 208.300781 248.585938 208.410156 C 247.726562 209.183594 246.914062 210.054688 246.128906 210.972656 C 245.765625 211.457031 245.367188 211.917969 245.027344 212.414062 C 244.652344 212.898438 244.351562 213.429688 244.011719 213.925781 C 243.710938 214.457031 243.382812 214.964844 243.117188 215.511719 C 242.828125 216.042969 242.585938 216.597656 242.320312 217.128906 C 241.847656 218.230469 241.449219 219.332031 241.121094 220.421875 C 240.832031 221.507812 240.566406 222.574219 240.433594 223.589844 C 240.335938 224.097656 240.3125 224.59375 240.25 225.078125 C 240.238281 225.136719 240.238281 225.199219 240.226562 225.257812 C 240.226562 225.320312 240.226562 225.378906 240.214844 225.441406 C 240.203125 225.5625 240.203125 225.671875 240.191406 225.792969 C 240.179688 226.023438 240.167969 226.25 240.15625 226.480469 C 240.15625 226.929688 240.140625 227.351562 240.15625 227.761719 C 240.179688 228.175781 240.191406 228.5625 240.214844 228.914062 C 240.25 229.277344 240.289062 229.613281 240.3125 229.929688 C 240.3125 230.011719 240.324219 230.074219 240.335938 230.148438 C 240.347656 230.21875 240.359375 230.28125 240.371094 230.351562 C 240.394531 230.484375 240.410156 230.617188 240.433594 230.726562 C 240.445312 230.847656 240.46875 230.957031 240.480469 231.066406 C 240.480469 231.113281 240.503906 231.1875 240.515625 231.246094 C 240.53125 231.308594 240.542969 231.367188 240.554688 231.417969 C 240.601562 231.648438 240.636719 231.828125 240.675781 231.984375 C 240.734375 232.300781 240.769531 232.457031 240.769531 232.457031 C 241.039062 233.777344 240.191406 235.046875 238.871094 235.3125 C 237.675781 235.578125 236.488281 234.875 236.101562 233.75 Z M 236.101562 233.75 " fill-opacity="1" fill-rule="nonzero"/><path fill="#4f2020" d="M 273.050781 184.722656 C 273.050781 184.722656 273.113281 184.832031 273.222656 185.039062 C 273.28125 185.136719 273.34375 185.269531 273.425781 185.414062 C 273.464844 185.488281 273.511719 185.570312 273.546875 185.644531 C 273.597656 185.714844 273.644531 185.789062 273.695312 185.875 C 273.789062 186.03125 273.898438 186.199219 274.007812 186.394531 C 274.140625 186.585938 274.273438 186.804688 274.417969 187.023438 C 274.5625 187.242188 274.734375 187.46875 274.914062 187.710938 C 275.085938 187.953125 275.289062 188.195312 275.484375 188.449219 C 275.582031 188.570312 275.703125 188.703125 275.796875 188.824219 C 275.90625 188.945312 276.015625 189.089844 276.136719 189.210938 C 276.257812 189.332031 276.378906 189.464844 276.5 189.597656 C 276.558594 189.660156 276.621094 189.730469 276.679688 189.792969 C 276.742188 189.851562 276.8125 189.925781 276.875 189.988281 C 277.007812 190.121094 277.128906 190.253906 277.273438 190.386719 C 277.417969 190.507812 277.550781 190.640625 277.695312 190.773438 C 277.769531 190.832031 277.84375 190.90625 277.914062 190.964844 C 277.988281 191.027344 278.058594 191.085938 278.144531 191.160156 C 278.300781 191.28125 278.445312 191.414062 278.605469 191.535156 C 279.234375 192.03125 279.910156 192.503906 280.613281 192.960938 C 280.972656 193.167969 281.324219 193.398438 281.699219 193.589844 C 282.0625 193.808594 282.460938 193.976562 282.835938 194.171875 C 283.222656 194.339844 283.609375 194.523438 284.011719 194.667969 C 284.398438 194.835938 284.808594 194.957031 285.195312 195.101562 C 285.59375 195.210938 285.992188 195.355469 286.394531 195.453125 C 286.792969 195.5625 287.191406 195.636719 287.578125 195.730469 C 288.363281 195.878906 289.136719 196.011719 289.863281 196.046875 C 290.238281 196.09375 290.589844 196.082031 290.941406 196.105469 C 291.292969 196.121094 291.628906 196.105469 291.957031 196.105469 C 292.28125 196.09375 292.597656 196.082031 292.898438 196.058594 C 293.203125 196.035156 293.480469 196.011719 293.746094 195.984375 C 294.011719 195.949219 294.265625 195.914062 294.496094 195.890625 C 294.726562 195.851562 294.945312 195.816406 295.136719 195.78125 C 295.523438 195.71875 295.828125 195.648438 296.042969 195.609375 C 296.261719 195.574219 296.371094 195.550781 296.371094 195.550781 L 296.480469 195.527344 C 297.195312 195.394531 297.871094 195.867188 298.003906 196.566406 C 298.101562 197.097656 297.859375 197.621094 297.4375 197.898438 C 297.4375 197.898438 297.328125 197.96875 297.109375 198.101562 C 297 198.175781 296.867188 198.25 296.722656 198.34375 C 296.648438 198.394531 296.566406 198.441406 296.46875 198.503906 C 296.371094 198.550781 296.273438 198.597656 296.179688 198.660156 C 295.972656 198.769531 295.742188 198.890625 295.476562 199.011719 C 295.222656 199.121094 294.933594 199.238281 294.628906 199.375 C 294.472656 199.445312 294.316406 199.496094 294.144531 199.542969 C 293.976562 199.601562 293.808594 199.652344 293.625 199.710938 C 293.445312 199.773438 293.261719 199.820312 293.082031 199.871094 C 292.886719 199.917969 292.695312 199.964844 292.5 200.027344 C 292.308594 200.074219 292.101562 200.109375 291.882812 200.148438 C 291.679688 200.183594 291.460938 200.230469 291.242188 200.269531 C 291.023438 200.304688 290.808594 200.328125 290.578125 200.351562 C 290.46875 200.363281 290.347656 200.378906 290.238281 200.390625 C 290.117188 200.402344 290.007812 200.402344 289.886719 200.414062 C 289.660156 200.425781 289.417969 200.449219 289.175781 200.460938 C 288.933594 200.460938 288.691406 200.460938 288.4375 200.460938 C 288.316406 200.460938 288.183594 200.460938 288.0625 200.460938 C 287.941406 200.460938 287.808594 200.449219 287.6875 200.4375 C 287.433594 200.425781 287.179688 200.414062 286.925781 200.390625 C 286.671875 200.363281 286.417969 200.328125 286.152344 200.304688 C 285.886719 200.28125 285.632812 200.21875 285.378906 200.171875 C 284.855469 200.085938 284.335938 199.953125 283.804688 199.832031 C 283.285156 199.675781 282.765625 199.542969 282.246094 199.335938 C 281.722656 199.15625 281.230469 198.9375 280.71875 198.71875 C 280.226562 198.476562 279.730469 198.234375 279.257812 197.96875 C 278.773438 197.714844 278.324219 197.402344 277.867188 197.109375 C 277.429688 196.796875 276.984375 196.496094 276.585938 196.144531 C 276.171875 195.816406 275.785156 195.453125 275.410156 195.101562 C 274.671875 194.378906 274.007812 193.640625 273.453125 192.878906 C 273.378906 192.78125 273.304688 192.683594 273.246094 192.597656 C 273.171875 192.503906 273.113281 192.40625 273.050781 192.308594 C 272.929688 192.117188 272.796875 191.933594 272.675781 191.742188 C 272.554688 191.558594 272.460938 191.367188 272.351562 191.171875 C 272.242188 190.992188 272.132812 190.808594 272.046875 190.628906 C 271.964844 190.445312 271.867188 190.265625 271.78125 190.082031 C 271.699219 189.902344 271.613281 189.746094 271.539062 189.5625 C 271.46875 189.394531 271.40625 189.222656 271.335938 189.054688 C 271.273438 188.886719 271.203125 188.742188 271.152344 188.570312 C 271.058594 188.257812 270.960938 187.964844 270.875 187.6875 C 270.804688 187.410156 270.730469 187.132812 270.683594 186.902344 C 270.65625 186.78125 270.632812 186.671875 270.609375 186.5625 C 270.585938 186.453125 270.585938 186.382812 270.574219 186.296875 C 270.546875 186.128906 270.523438 185.996094 270.511719 185.875 C 270.488281 185.644531 270.476562 185.523438 270.476562 185.523438 C 270.390625 184.75 270.9375 184.058594 271.710938 183.960938 C 272.242188 183.949219 272.785156 184.242188 273.050781 184.722656 Z M 273.050781 184.722656 " fill-opacity="1" fill-rule="nonzero"/><path fill="#4f2020" d="M 229.667969 181.90625 C 223.113281 181.90625 216.292969 179.898438 210.472656 176.257812 C 204.632812 172.589844 200.542969 167.765625 198.949219 162.648438 C 198.921875 162.574219 198.898438 162.492188 198.886719 162.417969 C 196.082031 148.796875 195.644531 135.613281 197.582031 123.203125 C 197.640625 122.839844 197.773438 122.488281 197.992188 122.1875 C 207.558594 108.46875 218.855469 98.003906 231.589844 91.074219 C 243.359375 84.664062 256.035156 81.410156 269.242188 81.410156 C 274.46875 81.410156 279.753906 81.929688 284.976562 82.957031 C 285.339844 83.03125 285.679688 83.175781 285.96875 83.40625 C 290.238281 86.632812 292.320312 90.710938 291.835938 94.894531 C 291.824219 95.042969 291.789062 95.175781 291.75 95.320312 C 290.046875 100.957031 286.5 103.824219 282.753906 106.847656 C 277.285156 111.261719 271.082031 116.269531 266.59375 131.996094 L 266.160156 133.507812 C 263.628906 142.410156 261.019531 151.605469 257.800781 160.496094 C 255.175781 167.765625 251.160156 173.316406 245.886719 176.996094 C 241.253906 180.210938 235.65625 181.90625 229.667969 181.90625 Z M 203.605469 161.316406 C 204.863281 165.238281 208.296875 169.179688 213.050781 172.15625 C 218.105469 175.324219 224.007812 177.066406 229.667969 177.066406 C 236.019531 177.066406 247.519531 174.695312 253.242188 158.851562 C 256.398438 150.117188 258.984375 140.996094 261.5 132.175781 L 261.9375 130.664062 C 264.101562 123.058594 266.910156 117.007812 270.511719 112.183594 C 273.667969 107.960938 276.875 105.359375 279.714844 103.074219 C 283.210938 100.253906 285.765625 98.199219 287.058594 94.132812 C 287.289062 91.242188 285.097656 88.910156 283.492188 87.601562 C 278.761719 86.707031 273.972656 86.246094 269.253906 86.246094 C 243.445312 86.246094 219.679688 99.832031 202.296875 124.496094 C 200.542969 136.132812 200.992188 148.507812 203.605469 161.316406 Z M 203.605469 161.316406 " fill-opacity="1" fill-rule="nonzero"/><path fill="#4f2020" d="M 337.117188 235.058594 C 335.714844 235.058594 334.589844 234.621094 333.804688 234.1875 C 329.246094 231.660156 327.394531 224.207031 328.53125 218.824219 C 328.808594 217.519531 330.089844 216.683594 331.398438 216.960938 C 332.703125 217.238281 333.539062 218.523438 333.261719 219.828125 C 332.449219 223.6875 333.878906 228.707031 336.140625 229.953125 C 337.238281 230.570312 338.679688 230.039062 340.394531 228.378906 C 341.351562 227.449219 342.886719 227.484375 343.820312 228.441406 C 344.75 229.410156 344.714844 230.933594 343.757812 231.863281 C 341.21875 234.320312 338.945312 235.058594 337.117188 235.058594 Z M 337.117188 235.058594 " fill-opacity="1" fill-rule="nonzero"/><path fill="#4f2020" d="M 322.582031 260.773438 C 322.132812 260.773438 321.6875 260.652344 321.285156 260.398438 C 320.160156 259.6875 319.824219 258.1875 320.535156 257.0625 C 324.117188 251.386719 323.921875 248.050781 323.644531 243.417969 C 323.320312 237.886719 322.90625 231.003906 328.410156 218.363281 C 328.941406 217.144531 330.371094 216.574219 331.589844 217.105469 C 332.8125 217.640625 333.382812 219.066406 332.847656 220.289062 C 327.816406 231.875 328.167969 237.851562 328.484375 243.125 C 328.773438 248.023438 329.050781 252.644531 324.625 259.636719 C 324.164062 260.375 323.378906 260.773438 322.582031 260.773438 Z M 322.582031 260.773438 " fill-opacity="1" fill-rule="nonzero"/><path fill="#4f2020" d="M 294.410156 231.1875 C 299.46875 234.78125 302.09375 237.839844 315.941406 243.539062 C 328.070312 248.519531 305.625 269.871094 290.433594 262.539062 C 275.835938 255.71875 280.804688 222.875 294.410156 231.1875 Z M 294.410156 231.1875 " fill-opacity="1" fill-rule="nonzero"/><path fill="#4f2020" d="M 252.417969 224.726562 C 252.359375 220.554688 258.902344 220.554688 258.839844 224.726562 C 258.902344 228.886719 252.359375 228.886719 252.417969 224.726562 Z M 252.417969 224.726562 " fill-opacity="1" fill-rule="nonzero"/><path fill="#4f2020" d="M 262.265625 232.128906 C 262.203125 227.957031 268.746094 227.957031 268.6875 232.128906 C 268.746094 236.292969 262.203125 236.292969 262.265625 232.128906 Z M 262.265625 232.128906 " fill-opacity="1" fill-rule="nonzero"/><path fill="#4f2020" d="M 253.277344 237.683594 C 253.242188 234.632812 258.019531 234.632812 257.96875 237.683594 C 258.019531 240.730469 253.242188 240.730469 253.277344 237.683594 Z M 253.277344 237.683594 " fill-opacity="1" fill-rule="nonzero"/><path fill="#4f2020" d="M 155.273438 135.164062 C 149.601562 139.410156 144.230469 142.542969 137.371094 141.953125 C 133.140625 136.0625 132.015625 128.546875 132.726562 121.4375 C 140.492188 125.585938 148.015625 130.167969 155.273438 135.164062 Z M 155.273438 135.164062 " fill-opacity="0.2" fill-rule="nonzero"/><path fill="#4f2020" d="M 289.390625 94.617188 C 285.65625 106.945312 272.035156 103.910156 264.222656 131.332031 C 261.515625 140.851562 258.839844 150.359375 255.480469 159.671875 C 243.769531 192.066406 206.46875 178.761719 201.210938 161.921875 C 198.777344 150.09375 198.078125 138.09375 199.527344 126.492188 C 200.21875 162.175781 238.015625 169.929688 249.757812 134.453125 C 263.644531 94.050781 275.738281 111.492188 288.910156 90.90625 C 289.355469 92.078125 289.539062 93.324219 289.390625 94.617188 Z M 289.390625 94.617188 " fill-opacity="0.2" fill-rule="nonzero"/><path fill="#4f2020" d="M 154.355469 197.074219 C 154.355469 197.074219 154.367188 197.21875 154.390625 197.484375 C 154.402344 197.621094 154.414062 197.789062 154.425781 197.980469 C 154.425781 198.078125 154.4375 198.175781 154.4375 198.296875 C 154.4375 198.417969 154.425781 198.550781 154.425781 198.695312 C 154.414062 198.972656 154.402344 199.300781 154.390625 199.640625 C 154.367188 199.964844 154.316406 200.316406 154.28125 200.703125 C 154.269531 200.898438 154.222656 201.089844 154.183594 201.285156 C 154.148438 201.488281 154.113281 201.695312 154.074219 201.902344 C 154.0625 201.949219 154.050781 202.011719 154.050781 202.058594 C 154.039062 202.105469 154.027344 202.167969 154.015625 202.214844 C 153.992188 202.324219 153.96875 202.433594 153.929688 202.542969 C 153.871094 202.761719 153.820312 202.988281 153.761719 203.21875 C 153.699219 203.449219 153.617188 203.679688 153.542969 203.910156 C 153.457031 204.140625 153.398438 204.382812 153.300781 204.625 C 153.203125 204.863281 153.109375 205.09375 153.011719 205.347656 C 152.964844 205.46875 152.914062 205.589844 152.855469 205.722656 C 152.792969 205.84375 152.746094 205.964844 152.683594 206.085938 C 152.574219 206.328125 152.441406 206.582031 152.320312 206.835938 C 152.1875 207.078125 152.054688 207.332031 151.910156 207.574219 C 151.839844 207.695312 151.777344 207.828125 151.691406 207.949219 C 151.621094 208.070312 151.535156 208.191406 151.464844 208.3125 C 151.304688 208.554688 151.148438 208.808594 150.980469 209.050781 C 150.300781 210.03125 149.515625 210.972656 148.65625 211.882812 C 147.785156 212.765625 146.820312 213.597656 145.804688 214.359375 C 144.773438 215.097656 143.6875 215.765625 142.574219 216.320312 C 142.003906 216.585938 141.449219 216.851562 140.878906 217.070312 C 140.589844 217.179688 140.3125 217.300781 140.035156 217.398438 C 139.742188 217.492188 139.464844 217.578125 139.175781 217.675781 C 138.898438 217.761719 138.605469 217.832031 138.328125 217.90625 C 138.183594 217.941406 138.050781 217.976562 137.90625 218.015625 C 137.761719 218.050781 137.625 218.074219 137.480469 218.097656 C 137.203125 218.160156 136.925781 218.207031 136.648438 218.269531 C 136.367188 218.316406 136.101562 218.351562 135.824219 218.390625 C 135.691406 218.402344 135.558594 218.425781 135.425781 218.4375 C 135.292969 218.449219 135.160156 218.460938 135.027344 218.472656 C 134.761719 218.496094 134.507812 218.511719 134.253906 218.535156 C 134 218.546875 133.746094 218.546875 133.503906 218.546875 C 133.261719 218.546875 133.019531 218.558594 132.777344 218.546875 C 132.546875 218.535156 132.304688 218.523438 132.085938 218.511719 C 131.859375 218.496094 131.640625 218.496094 131.433594 218.460938 C 131.214844 218.4375 131.011719 218.414062 130.816406 218.390625 C 130.613281 218.363281 130.417969 218.339844 130.238281 218.304688 C 129.863281 218.230469 129.511719 218.160156 129.195312 218.097656 C 128.882812 218.027344 128.59375 217.941406 128.324219 217.867188 C 128.191406 217.832031 128.070312 217.796875 127.964844 217.761719 C 127.855469 217.722656 127.746094 217.6875 127.648438 217.652344 C 127.457031 217.578125 127.285156 217.519531 127.152344 217.46875 C 126.886719 217.359375 126.742188 217.3125 126.742188 217.3125 C 125.96875 217.011719 125.59375 216.140625 125.894531 215.363281 C 126.125 214.785156 126.679688 214.421875 127.261719 214.410156 L 127.394531 214.410156 C 127.394531 214.410156 127.527344 214.410156 127.78125 214.398438 C 127.902344 214.398438 128.058594 214.398438 128.230469 214.398438 C 128.3125 214.398438 128.410156 214.398438 128.519531 214.398438 C 128.617188 214.398438 128.726562 214.386719 128.847656 214.386719 C 129.074219 214.371094 129.316406 214.371094 129.597656 214.359375 C 129.863281 214.335938 130.152344 214.3125 130.464844 214.289062 C 130.78125 214.25 131.109375 214.214844 131.445312 214.179688 C 131.785156 214.132812 132.148438 214.070312 132.511719 214.011719 C 132.875 213.925781 133.261719 213.863281 133.660156 213.769531 C 134.046875 213.660156 134.457031 213.585938 134.855469 213.441406 C 135.0625 213.382812 135.269531 213.320312 135.472656 213.261719 C 135.679688 213.1875 135.886719 213.113281 136.101562 213.042969 C 136.210938 213.007812 136.308594 212.96875 136.417969 212.933594 C 136.527344 212.886719 136.621094 212.847656 136.730469 212.8125 C 136.9375 212.726562 137.15625 212.65625 137.371094 212.558594 C 138.21875 212.195312 139.078125 211.773438 139.914062 211.300781 C 140.746094 210.816406 141.570312 210.273438 142.355469 209.703125 C 143.140625 209.109375 143.878906 208.480469 144.59375 207.816406 C 145.28125 207.152344 145.9375 206.449219 146.527344 205.75 C 146.671875 205.578125 146.808594 205.386719 146.953125 205.214844 C 147.023438 205.132812 147.097656 205.035156 147.15625 204.949219 C 147.21875 204.863281 147.289062 204.769531 147.351562 204.683594 C 147.484375 204.503906 147.617188 204.332031 147.738281 204.152344 C 147.859375 203.96875 147.96875 203.789062 148.089844 203.617188 C 148.148438 203.535156 148.210938 203.449219 148.269531 203.351562 C 148.332031 203.269531 148.378906 203.171875 148.425781 203.085938 C 148.535156 202.90625 148.632812 202.734375 148.742188 202.566406 C 148.851562 202.398438 148.933594 202.214844 149.03125 202.046875 C 149.128906 201.878906 149.226562 201.707031 149.308594 201.539062 C 149.46875 201.199219 149.636719 200.886719 149.78125 200.570312 C 149.914062 200.257812 150.058594 199.953125 150.179688 199.675781 C 150.289062 199.386719 150.398438 199.121094 150.496094 198.863281 C 150.59375 198.625 150.652344 198.40625 150.738281 198.199219 C 150.773438 198.101562 150.808594 198.007812 150.847656 197.910156 C 150.882812 197.8125 150.90625 197.703125 150.929688 197.621094 C 150.980469 197.4375 151.027344 197.28125 151.078125 197.148438 C 151.160156 196.894531 151.195312 196.761719 151.195312 196.761719 C 151.464844 195.914062 152.371094 195.441406 153.21875 195.707031 C 153.871094 195.878906 154.304688 196.445312 154.355469 197.074219 Z M 154.355469 197.074219 " fill-opacity="1" fill-rule="nonzero"/><path fill="#4f2020" d="M 92.390625 229.046875 C 92.390625 229.046875 92.367188 229.144531 92.320312 229.335938 C 92.296875 229.433594 92.257812 229.554688 92.222656 229.6875 C 92.199219 229.757812 92.1875 229.832031 92.148438 229.917969 C 92.113281 230 92.078125 230.097656 92.042969 230.195312 C 91.96875 230.386719 91.871094 230.617188 91.777344 230.847656 C 91.667969 231.066406 91.558594 231.308594 91.425781 231.5625 C 91.292969 231.816406 91.132812 232.070312 90.976562 232.347656 C 90.90625 232.492188 90.796875 232.613281 90.710938 232.757812 C 90.613281 232.90625 90.515625 233.039062 90.421875 233.183594 C 90.3125 233.328125 90.203125 233.460938 90.09375 233.605469 C 89.972656 233.75 89.863281 233.898438 89.742188 234.042969 C 89.621094 234.1875 89.488281 234.332031 89.355469 234.476562 C 89.285156 234.550781 89.222656 234.621094 89.152344 234.695312 C 89.078125 234.765625 89.003906 234.839844 88.933594 234.914062 C 88.789062 235.058594 88.644531 235.203125 88.484375 235.335938 C 88.328125 235.46875 88.171875 235.613281 88 235.746094 C 87.917969 235.820312 87.84375 235.890625 87.761719 235.953125 C 87.675781 236.011719 87.589844 236.085938 87.507812 236.144531 C 87.335938 236.28125 87.15625 236.414062 86.972656 236.535156 C 86.234375 237.042969 85.4375 237.5 84.589844 237.902344 C 83.746094 238.289062 82.847656 238.613281 81.929688 238.867188 C 81.011719 239.109375 80.078125 239.28125 79.148438 239.363281 C 78.21875 239.4375 77.296875 239.449219 76.414062 239.375 C 76.199219 239.363281 75.980469 239.328125 75.761719 239.304688 C 75.652344 239.292969 75.542969 239.28125 75.433594 239.265625 C 75.328125 239.253906 75.21875 239.230469 75.121094 239.207031 C 74.914062 239.171875 74.699219 239.132812 74.503906 239.097656 C 74.296875 239.050781 74.105469 239 73.898438 238.953125 C 73.800781 238.929688 73.707031 238.90625 73.609375 238.878906 C 73.511719 238.855469 73.414062 238.820312 73.320312 238.796875 C 73.125 238.734375 72.945312 238.675781 72.761719 238.625 C 72.582031 238.566406 72.410156 238.492188 72.230469 238.433594 C 72.0625 238.359375 71.890625 238.300781 71.734375 238.226562 C 71.578125 238.15625 71.417969 238.082031 71.261719 238.007812 C 71.105469 237.9375 70.960938 237.875 70.828125 237.792969 C 70.683594 237.71875 70.550781 237.632812 70.414062 237.5625 C 70.28125 237.488281 70.148438 237.417969 70.042969 237.34375 C 69.800781 237.1875 69.582031 237.042969 69.375 236.910156 C 69.183594 236.761719 69 236.628906 68.84375 236.496094 C 68.757812 236.4375 68.6875 236.375 68.613281 236.316406 C 68.542969 236.253906 68.480469 236.195312 68.421875 236.144531 C 68.300781 236.039062 68.203125 235.953125 68.128906 235.878906 C 67.972656 235.734375 67.886719 235.652344 67.886719 235.652344 C 67.367188 235.140625 67.355469 234.320312 67.863281 233.800781 C 68.226562 233.4375 68.746094 233.316406 69.195312 233.460938 L 69.328125 233.496094 C 69.328125 233.496094 69.425781 233.519531 69.59375 233.582031 C 69.761719 233.628906 70.003906 233.738281 70.332031 233.824219 C 70.488281 233.871094 70.65625 233.921875 70.851562 233.980469 C 71.042969 234.03125 71.25 234.089844 71.457031 234.136719 C 71.675781 234.1875 71.902344 234.234375 72.144531 234.296875 C 72.386719 234.34375 72.640625 234.390625 72.90625 234.441406 C 73.171875 234.476562 73.453125 234.527344 73.742188 234.550781 C 74.03125 234.5625 74.324219 234.621094 74.625 234.621094 C 75.230469 234.671875 75.871094 234.660156 76.535156 234.644531 C 77.199219 234.609375 77.867188 234.550781 78.554688 234.441406 C 79.234375 234.332031 79.921875 234.175781 80.601562 233.992188 C 81.277344 233.800781 81.929688 233.570312 82.570312 233.316406 C 83.199219 233.050781 83.816406 232.757812 84.398438 232.445312 C 84.542969 232.371094 84.675781 232.277344 84.820312 232.203125 C 84.894531 232.167969 84.964844 232.117188 85.027344 232.082031 C 85.097656 232.035156 85.160156 231.996094 85.230469 231.960938 C 85.363281 231.875 85.5 231.792969 85.632812 231.707031 C 85.765625 231.621094 85.886719 231.527344 86.007812 231.441406 C 86.261719 231.285156 86.488281 231.089844 86.71875 230.921875 C 86.949219 230.75 87.15625 230.570312 87.371094 230.402344 C 87.566406 230.21875 87.773438 230.0625 87.953125 229.894531 C 88.136719 229.722656 88.304688 229.566406 88.460938 229.410156 C 88.617188 229.25 88.765625 229.09375 88.898438 228.960938 C 89.03125 228.828125 89.140625 228.707031 89.246094 228.585938 C 89.296875 228.527344 89.355469 228.476562 89.40625 228.429688 C 89.453125 228.378906 89.5 228.308594 89.550781 228.257812 C 89.632812 228.152344 89.71875 228.054688 89.78125 227.980469 C 89.914062 227.835938 89.972656 227.75 89.972656 227.75 C 90.480469 227.160156 91.363281 227.085938 91.96875 227.59375 C 92.367188 227.992188 92.523438 228.550781 92.390625 229.046875 Z M 92.390625 229.046875 " fill-opacity="1" fill-rule="nonzero"/><g clip-path="url(#4341733e93)"><path fill="#ff914d" d="M 187.496094 6.605469 C 87.691406 6.605469 6.605469 87.691406 6.605469 187.496094 C 6.605469 287.300781 87.691406 368.386719 187.496094 368.386719 C 287.300781 368.386719 368.386719 287.300781 368.386719 187.496094 C 368.386719 87.691406 287.300781 6.605469 187.496094 6.605469 Z M 187.496094 14.472656 C 283.15625 14.472656 360.523438 91.839844 360.523438 187.496094 C 360.523438 283.15625 283.15625 360.523438 187.496094 360.523438 C 91.839844 360.523438 14.472656 283.15625 14.472656 187.496094 C 14.472656 91.839844 91.839844 14.472656 187.496094 14.472656 Z M 187.496094 14.472656 " fill-opacity="1" fill-rule="nonzero"/></g></svg>
